<?xml version="1.0" encoding="utf-8" ?>
<svg baseProfile="full" height="300mm" version="1.1" viewBox="0,0,200,300" width="200mm" xmlns="http://www.w3.org/2000/svg" xmlns:ev="http://www.w3.org/2001/xml-events" xmlns:xlink="http://www.w3.org/1999/xlink"><defs /><rect fill="#222222" height="300" width="200" x="0" y="0" /><text fill="#FFFFFF" style="font-size:12px; font-family:Arial; font-weight:bold;" x="10" y="20">海强的足迹</text><text fill="#FFFFFF" style="font-size:4px; font-family:Arial" x="10" y="280">ATHLETE</text><text fill="#FFFFFF" style="font-size:9px; font-family:Arial" x="10" y="290">海强</text><text fill="#FFFFFF" style="font-size:4px; font-family:Arial" x="120" y="280">STATISTICS</text><text fill="#FFFFFF" style="font-size:3px; font-family:Arial" x="120" y="285">Number: 54</text><text fill="#FFFFFF" style="font-size:3px; font-family:Arial" x="120" y="290">Weekly: 1.9</text><text fill="#FFFFFF" style="font-size:3px; font-family:Arial" x="141" y="285">Total: 150.1 km</text><text fill="#FFFFFF" style="font-size:3px; font-family:Arial" x="141" y="290">Avg: 2.8 km</text><text fill="#FFFFFF" style="font-size:3px; font-family:Arial" x="167" y="285">Min: 1.1 km</text><text fill="#FFFFFF" style="font-size:3px; font-family:Arial" x="167" y="290">Max: 5.0 km</text><polyline fill="none" points="14.741476332303137,36.18623895631754 14.574644157546572,36.779693254386075 12.286660046316683,37.32154196783085 12.477325388928875,39.153500564658316 13.716650115791708,39.463126439542975 16.17146640177816,41.24346999992849 17.14862628269475,41.269272015138995 16.838795100920834,41.44988606925472 18.078119827783667,41.86271784940618 18.6977821913315,43.04960655365721 20.65210195304826,43.720454942580545 21.295597484335303,44.933139210625086 22.79708705737721,45.78459591214778 23.631247931160033,47.203685894957744 25.442568685975857,47.66811411676463 26.41972856677603,48.85498349019326 28.660046342294663,50.50627343580709 30.685865607578307,50.11925304113538 32.85468387964647,51.512524495541584 33.97484276734758,50.635280140675604 35.33333333337214,50.944896041823085 35.2856669977773,50.68688280953211 34.23700761341024,50.04184891175828 32.783184376196004,51.09970389161026 32.40185369097162,51.048101282445714 29.70870572666172,48.338953813392436 30.709698775201105,47.203685894957744 30.1853690831922,46.61024895310402 28.44554783194326,46.429637513821945 27.325388944125734,44.726725158514455 24.91823899373412,44.80413044206216 24.393909301492386,43.3592290438537 22.534922211198136,41.68210400445969 20.318437603418715,40.70162724907277 12.977821913314983,35.56698124387185 11.333333333372138,35.154142171144485 13.049321416649036,36.90870492751128 14.026481297565624,36.96030958372285 15.599470374058,38.147214613767574 16.743462429614738,38.431039143993985 17.36312479316257,39.308313535759225 19.41277722606901,40.70162724907277 21.247931148740463,41.14026192040183 24.322409798041917,43.6688512651599 24.298576630302705,43.25602157699177" stroke="red" stroke-linecap="round" stroke-linejoin="round" stroke-width="0.5"><title>2024-05-31 3.6km</title><desc>1717150390000</desc></polyline><polyline fill="none" points="43.82456140348222,37.217612339532934 43.12280701752752,37.572155132336775 43.450292397639714,38.914349592785584 44.05847953213379,39.674080023687566 46.98245614033658,41.37080536177382 48.92397660820279,41.82664061736432 49.48538011685014,42.89025390360621 51.4035087719094,43.59932763129473 52.573099415167235,46.86611302717938 56.19883040932473,47.49920744338306 58.77192982460838,50.13286791901919 59.730994152021594,50.310132815822726 61.46198830404319,49.93027935549617 62.65497076022439,51.19645595276961 63.239766081795096,51.34839683651808 64.61988304089755,50.38610345844063 65.90643274842296,50.8166034547321 64.94736842100974,49.955602932401234 63.26315789471846,50.968544503470184 61.60233918123413,49.42380743351532 58.257309941458516,49.24654208763968 57.60233918123413,48.91733477837988 60.33918128651567,48.99330572341569 62.9122807016829,51.29774988256395 64.69005847943481,50.38610345844063 66.0,50.740632905683015 64.76023391808849,49.955602932401234 63.28654970752541,50.993868005200056 62.888888888875954,50.89257398736663 60.38596491224598,48.3095666244335 60.409356725169346,47.803092356276466 61.34502923977561,47.043379579205066 60.92397660820279,46.58755112113431 59.28654970752541,46.61287493989221 57.836257309885696,44.73890739682247 55.75438596482854,44.5869636425341 55.16959064314142,43.34608717923402 53.20467836258467,41.49742632568814 51.49707602337003,40.96561796934111 48.22222222224809,38.61045695847133 47.05263157887384,38.179941941198194 43.96491228067316,35.444892984989565 42.0,35.31826983013889 43.96491228067316,36.93904275022214 44.76023391808849,37.11631433272851" stroke="red" stroke-linecap="round" stroke-linejoin="round" stroke-width="0.5"><title>2024-05-30 3.8km</title><desc>1717064129000</desc></polyline><polyline fill="none" points="75.09140893467702,35.45824375093798 74.94295532640535,35.967188593611354 72.66666666662786,36.44934621982975 72.79037800687365,38.32439768218319 74.02749140898231,38.619047762360424 76.6254295532126,40.57444689417025 78.38213058409747,41.136957059265114 79.24810996558517,42.422691368177766 81.32646048103925,43.19948701496469 82.16769759450108,44.56557195528876 83.30584192427341,45.02093248133315 84.61718213057611,46.92272626815247 86.54707903775852,47.378083893621806 89.26872852235101,50.083432350103976 92.01512027485296,49.815576949418755 93.57388316153083,51.20842291577719 95.13264604797587,50.270931015198585 96.66666666662786,50.672713549109176 95.3305841924157,49.76200584601611 93.57388316153083,50.77985548446304 90.65429553261492,47.88701234132168 91.81718213064596,46.92272626815247 91.29759450163692,46.27986749011325 89.26872852235101,46.01200933632208 88.32852233666927,44.351284454984125 84.98831615119707,43.89592310489388 83.55326460476499,42.55662176848273 83.10790377995,41.136957059265114 80.03986254287884,39.878004552592756 77.1697594501311,37.547591800714144 76.00687285221647,37.27972732548369 74.37388316146098,36.18148094948265 72.81512027489953,36.315413608943345 72.88934707897715,38.244038528733654 74.15120274911169,38.645834121649386 76.77388316148426,40.70837796339765 78.48109965631738,41.056598516588565 79.91615120263305,42.55662176848273 82.16769759450108,42.79769636676065 82.26666666660458,40.54766067446326 80.26254295534454,39.9851496135816 78.53058419236913,38.32439768218319 75.06666666665114,36.55649227369577" stroke="red" stroke-linecap="round" stroke-linejoin="round" stroke-width="0.5"><title>2024-05-29 3.7km</title><desc>1716977638000</desc></polyline><polyline fill="none" points="104.73785078723449,35.74401289067464 105.30458590015769,35.82404251379194 103.33333333337214,36.357572890410665 103.62902121839579,38.171570392441936 104.8856947296299,38.43833397779963 107.59616700897459,40.46573091507889 109.09924709110055,40.67914047013619 110.0355920601869,42.14632781536784 111.88364134158473,42.839905254222685 112.89390828204341,44.33375991950743 114.07665982202161,44.86727797528147 115.01300479134079,46.441151739651104 116.73785078723449,46.9479910126538 119.96577686525416,49.695581255393336 122.77481177286245,49.61555464472622 124.57357973989565,50.92265377601143 125.97809719364159,50.01568752419553 127.33333333337214,50.20241605263436 125.97809719364159,49.48217692167964 124.74606433953159,50.46917092910735 124.2532511978643,50.46917092910735 121.44421629025601,47.641559414420044 122.47912388772238,46.627882079192204 122.20807665982284,46.174393947585486 120.31074606440961,45.88096015335759 118.90622861054726,43.98697276908206 115.6783025325276,43.506805406621424 114.44626967830118,42.46644064167049 113.95345653651748,40.86587372946087 111.56331279943697,39.85217775590718 105.89596167008858,35.74401289067464" stroke="#ff9b00" stroke-linecap="round" stroke-linejoin="round" stroke-width="0.5"><title>2024-05-28 2.6km</title><desc>1716891555000</desc></polyline><polyline fill="none" points="141.30495867948048,48.7222971652518 140.38134399359114,50.166730100347195 141.09971097158268,51.388940459350124 142.48513300041668,52.94447809958365 145.97434403654188,54.6666768072173 153.87638079398312,51.388940459350124 154.85130740702152,50.38895031058928 155.00524318800308,48.16674531204626 154.03031657496467,45.33342460118001 151.41340829827823,42.72231585509144 151.51603215234354,36.50006343657151 146.07696789037436,32.50001736701233 142.27988529251888,31.33333333331393 138.89329811069183,33.66669962584274 137.09738066559657,37.111179749073926 140.2274082126096,40.33342134312261 138.12361920578405,47.33341677766293 140.2274082126096,52.05559983442072 146.5900871604681,55.33333333331393 150.13061012304388,54.44445783639094 153.67113308608532,50.333395263995044 154.69737162603997,46.27786600100808 150.59241746622138,41.22231319360435 151.15684866323136,38.05563127389178 150.38716975832358,35.666722226014826 145.35860091238283,32.27779197355267 142.99825227051042,31.611115407082252 140.68921555555426,32.00001014134614 138.4828026946634,34.11114954325603 137.3026283737272,37.00006772845518 137.40525222755969,37.94451939017745 139.5603531615343,39.111193366523366 140.4326559205074,40.55564440233866 138.27755498653278,45.72231237735832 139.3551054536365,50.11117503780406 141.45889446046203,53.000032957002986 144.12711466429755,54.38890308351256 150.59241746622138,53.72224573668791 153.56850923225284,50.277840213500895 154.2355642830953,46.72230861033313 150.69504132005386,42.33342655788874 150.84897710103542,37.611183642351534 149.36093121836893,35.944502730097156 144.43498622626066,32.83335533627542 141.66414216859266,31.944453762785997 138.79067425662652,33.11113686679164 136.9947568117641,34.88893627899233" stroke="red" stroke-linecap="round" stroke-linejoin="round" stroke-width="0.5"><title>2024-05-24 3.7km</title><desc>1716555339000</desc></polyline><polyline fill="none" points="170.8136054420611,38.05734948287136 168.04625850333832,36.9437993185129 166.89523809519596,36.015838261751924 165.81768707477022,35.83024576821481 164.66666666662786,36.12189107298036 165.03401360544376,38.13688865074073 166.33197278901935,38.42853211858892 169.98095238080714,40.86772293687682 171.08299319725484,41.05331287757144 171.45034013595432,42.00777394414763 173.43401360546704,42.88269440337899 174.07074829924386,44.10227701076656 175.58911564620212,44.81811708462192 176.47074829926714,46.355842882883735 178.9197278911015,46.91260408004746 179.75238095223904,48.45032108502346 180.5360544216819,48.74195634049829 181.46666666667443,49.828958428726764 184.2340136053972,49.53732403879985 185.8503401359776,50.83642089844216 187.0993197277421,49.961519438336836 188.66666666662786,50.22664131358033 187.34421768703032,49.45778734667692 185.6054421768058,50.544787310645916 182.76462585025,47.49587680742843 183.84217687067576,46.51491759705823 183.5482993196929,46.11723068225547 181.61360544222407,45.905130817729514 180.41360544215422,44.18181486584945 178.57687074819114,44.18181486584945 177.79319727886468,43.54551154162618 177.3034013605211,42.431978064152645 175.66258503403515,41.05331287757144 172.96870748291258,39.83372011707979 169.12380952388048,37.20893061714014 166.8462585033849,36.068864671251504 165.25442176871002,36.14840427102172 164.91156462579966,36.4930756703252 165.10748299316037,38.21642780138063 166.52789115649648,38.587610275804764 169.8829931973014,40.7881843620562 171.0095238094218,40.97377434305963 171.67074829922058,42.219876065530116 174.168707482866,42.82966898047016 174.51156462577637,42.193363307073014 174.48707482998725,40.443517005012836 169.07482993183658,37.1559043728048" stroke="red" stroke-linecap="round" stroke-linejoin="round" stroke-width="0.5"><title>2024-05-20 3.8km</title><desc>1716199800000</desc></polyline><polyline fill="none" points="14.043805612716824,62.037204681459116 13.698836413444951,62.83750204255921 11.431895961752161,63.584444678010186 11.752224503899924,65.05164901789976 15.078713210183196,66.75893398647895 15.472963723586872,67.39916381033254 17.59206023288425,68.11942103251931 18.01095140329562,68.9730573988054 20.056125941337086,69.96007198226289 20.69678302539978,71.02711180137703 22.37234770716168,71.96076910855481 23.33333333337214,73.50796743840328 24.984257358126342,73.9347796276852 28.03969883651007,76.73572235374013 30.898015058366582,76.68237126260647 32.573579740012065,77.96279531854088 33.97809719387442,77.05582873843377 35.33333333337214,77.45596132829087 33.928815879742615,76.5489935009391 32.277891855104826,77.58933876172523 30.23271731706336,75.6153478178312 29.518138261628337,74.60167268378427 29.887748117907904,74.12150980508886 30.626967830350623,73.72137359483168 31.58795345679391,74.22821272106376 32.30253251211252,73.77472511466476 31.489390828297473,74.04148259776412 30.03559206041973,72.94777568985592 28.335386721533723,72.89442405037698 26.930869267787784,71.13381561340066 25.477070499793626,71.10713966324693 24.392881588079035,70.62697223131545 23.87542778928764,69.42655091406778 21.017111567547545,67.34581136747147 19.19370294327382,66.94566779999877 18.084873374551535,66.14537936149281 17.937029432039708,65.50514735927572 19.563312799553387,66.91899154667044 21.16495551005937,67.63924970745575 21.041752224671654,69.45322698587552 18.35592060245108,69.23981835774612 17.59206023288425,67.93268781382358 16.532511978177354,67.82598307487206 13.10746064351406,65.45179464219837 11.70294318976812,65.13167817753856 11.333333333372138,63.55776818134473 13.230663928901777,63.130943972821115 16.581793292309158,64.81156143479166" stroke="red" stroke-linecap="round" stroke-linejoin="round" stroke-width="0.5"><title>2024-05-17 3.6km</title><desc>1715940865000</desc></polyline><polyline fill="none" points="66.0,77.93164237294695 64.30334190244321,76.92976728169015 61.95886889460962,78.1320171301195 58.50385604123585,74.5252581864479 59.892030848306604,72.98903748163139 56.62210796913132,72.1541327793384 55.388174807070754,70.11695896464516 51.80976863752585,69.88318434503162 49.6195372750517,67.97958660390577 49.00257069407962,66.20956762196147 46.34961439576,65.00728670443641 42.0,61.86798286990961" stroke="#fffc00" stroke-linecap="round" stroke-linejoin="round" stroke-width="0.5"><title>2024-05-15 1.2km</title><desc>1715769056000</desc></polyline><polyline fill="none" points="78.10004312195815,63.59683992454666 76.8270806382643,63.32793585234322 75.15049590333365,61.815347544063115 74.00172488146927,61.88257379582501 72.66666666662786,62.31954419441172 73.16343251394574,64.47077708368306 76.85812850354705,66.38671048393007 78.2552824493032,67.93289658610593 80.39758516603615,68.33624863548903 81.14273393701296,69.57991524875979 83.50237171177287,70.65551611999399 84.74428633018397,72.50419929582858 86.35877533408348,73.17644589859992 87.56964208709542,75.29401633600355 90.20871065102983,75.63013773961575 91.41957740404177,77.17629306251183 95.20741698995698,77.64686105193687 96.16990081919357,78.18465245593688 95.26951272087172,76.70572459610412 96.66666666662786,75.36124063617899" stroke="#fff200" stroke-linecap="round" stroke-linejoin="round" stroke-width="0.5"><title>2024-05-13 1.3km</title><desc>1715595905000</desc></polyline><polyline fill="none" points="106.41186736477539,61.00474136552657 105.94066317635588,62.09303419975913 103.33333333337214,62.56916152199847 103.45898778352421,64.5076749228756 107.04013961611781,66.88829447093303 108.10820244334172,67.97657367491047 108.70506108202972,69.57497918503941 109.20767888298724,68.99683313898277 110.77835951128509,68.96282452586456 111.50087260035798,70.49320967815584 114.2338568934938,71.27540460860473 115.05061082029715,72.9078072248958 116.90401396155357,73.75801467444398 118.22338568931445,75.9005306235631 120.54799301922321,76.44466010239557 121.61605584644713,77.97502088322653 126.95636998256668,78.99525863447343 125.98254799307324,76.88676484004827 127.33333333337214,75.73049003214692 126.61082024441566,75.0843352235679 124.53752181504387,74.60822058547637 122.8097731238231,72.73776555029326 120.73647469456773,71.85354785059462 118.85165794065688,71.95557305469993 116.99825479928404,70.25515009305673 116.68411867367104,68.89480729226489 115.58464223390911,67.9085562985274 113.4799301919993,67.1603645083378 111.218150087283,65.05181759750121 109.27050610817969,64.33763020779588 107.54275741719175,62.807225002063205" stroke="#ffb600" stroke-linecap="round" stroke-linejoin="round" stroke-width="0.5"><title>2024-05-11 2.2km</title><desc>1715422555000</desc></polyline><polyline fill="none" points="134.0,80.97128481429536 137.9512195121497,81.36735588987358 136.19512195093557,80.33757079549832 136.92682926822454,80.65442785079358 144.24390243925154,65.99969303805847 140.51219512196258,64.17773931741249 141.75609756121412,63.22715356334811 135.24390243878588,64.7322472926462 145.3414634144865,60.454607063671574 147.682926828973,60.216959893878084 145.85365853644907,62.83107592217857 149.80487804859877,60.216959893878084 158.0,58.63264411006821 146.14634146355093,58.87029162386898 149.7317073168233,59.266370698809624 149.6585365855135,60.771469876228366" stroke="#ffff00" stroke-linecap="round" stroke-linejoin="round" stroke-width="0.5"><title>2022-08-15 1.1km</title><desc>1660575377000</desc></polyline><polyline fill="none" points="179.07258269190788,58.0 181.38713481719606,58.6593575454317 182.54441087995656,59.54948871821398 183.1230489112204,60.934133752889466 185.4376010368578,62.54954764217837 186.41214929998387,64.92320664061117 187.72169852885418,66.37376994179795 186.44260393327568,73.23091576964362 184.70668983925134,75.34078603610396 183.36668597720563,79.95609319157666 179.4075836573029,79.98905950310291 177.45848713070154,81.67033823151723 175.02211647236254,82.0 172.52483654743992,81.20881135499803 169.05300835939124,80.91211525897961 166.55572843458503,78.30777457274962 165.61163480451796,76.49461720665568 165.70299870416056,74.28585212380858 167.04300256620627,72.67047983818338 170.42346685472876,70.46169622117304 172.52483654743992,62.615482781344326" stroke="#ffba00" stroke-linecap="round" stroke-linejoin="round" stroke-width="0.5"><title>2019-09-03 2.2km</title><desc>1567505917000</desc></polyline><polyline fill="none" points="30.362918026250554,84.66666666666788 26.093613342614844,91.98527322301379 21.15303433765075,100.32965193812561 16.303748640377307,108.66666666666788" stroke="red" stroke-linecap="round" stroke-linejoin="round" stroke-width="0.5"><title>2019-05-23 5.0km</title><desc>1558617010000</desc></polyline><polyline fill="none" points="55.5685594844399,84.89524411442108 59.97259188280441,86.46262920901063 60.4552255703602,87.76877929636976 62.53658334782813,88.94431114301551 63.411356906290166,91.45863287051907 64.97991639061365,93.12395513511728 63.68283835542388,99.98109972264501 61.72213899996132,102.49535997153725 61.058517679804936,105.89122171376948 59.82176885555964,106.7075308242056 56.68464988679625,106.51161677233176 53.276049468666315,108.53605787496781 49.7769552343525,107.78505658966606 47.273292980506085,107.71975207107607 45.01094757032115,106.05448365397751 43.14074203115888,103.01780190237332 42.98991900391411,101.417821579671 43.95518637902569,99.5892656952492 47.273292980506085,97.4994784714363 48.3592187773902,95.99743792819208 50.13893050001934,86.98508969758404 53.034732625004835,84.69932059489656 55.628888695384376,84.86259020044236 58.946995296981186,85.67893734219251 60.06308569922112,86.5279368031479 60.60604859772138,87.93204779154621 62.6874063750729,89.2708472237573 63.532015328179114,91.68720687855966 65.0100809962023,93.15660845144885 63.68283835542388,99.78518275145325 61.99362044921145,101.87495939340442 61.058517679804936,106.21774553507566 59.85193346103188,107.00140174251283 56.53382685943507,106.7075308242056 54.84460895322263,108.14423127329792 53.24588486342691,108.66666666665697 47.574939035228454,107.88301334989956 45.88572112878319,107.16466328126262 43.02008360938635,103.08310710117803 43.11057742591947,100.96068330298294 43.804363351664506,99.81783558588359 47.1224699531449,97.6627434467373 47.90674969542306,96.71580576806446 48.811687859357335,93.71171446738299 48.66086483199615,92.20966131915338 50.59139958198648,86.3646678000514 53.63802473433316,84.66666666665697 55.41773645707872,84.79728236532537" stroke="red" stroke-linecap="round" stroke-linejoin="round" stroke-width="0.5"><title>2019-02-22 5.0km</title><desc>1550830880000</desc></polyline><polyline fill="none" points="85.67985665902961,84.66666666665697 90.74580662103835,86.92478623529314 91.19280220579822,88.15061778316158 93.24898189608939,89.27967017467017 94.29197159421165,91.89260903027025 95.69255776016507,93.34423511161003 94.32177129981574,100.08616985802655 92.65298778295983,101.79583088876097 91.75899661332369,105.69899471648387 90.89480514917523,106.66671600050176 87.19964164763223,106.47317191169714 85.05406284041237,108.15055122430203 83.32567991211545,108.66666666665697 81.03110257652588,107.98926502611721 78.6173264181707,108.21506568725454 76.73994496173691,107.63443518462009 74.29636909777764,104.37643889899482 73.64077557332348,102.5377572211728 73.81957380729727,101.1184188115003 75.1009611506015,99.21520794482785 77.78293465974275,97.82811694170232 78.76632494654041,96.66682813235093 80.55430728604551,87.60221987569821 81.65689639537595,86.18283392427838" stroke="#ffad00" stroke-linecap="round" stroke-linejoin="round" stroke-width="0.5"><title>2019-01-15 2.4km</title><desc>1547548013000</desc></polyline><polyline fill="none" points="117.39680099533871,85.22102891054237 121.1923765486572,86.59062682479271 121.91534332069568,88.12326717522228 123.81313109735493,89.1341547666816 124.89758125552908,91.7754955139244 126.25314395304304,93.07985560575617 125.07832294842228,100.15594332420733 123.48177132674027,101.52549585900852 122.36719755316153,106.12324893794721 120.95138762472197,106.93844849040033 117.96914968988858,106.71019276432344 115.10740621725563,108.60145100663067 113.36023651796859,108.66666666665697 111.07084173988551,107.85147023916943 108.78144696168602,108.0471175161947 107.12464810907841,107.19931203589658 104.80512971535791,103.71024962308002 104.41352271370124,102.04722906349343 105.04611863940954,99.92768416384934 106.13056879735086,98.72116953908699 108.60070526867639,97.5798689488729 109.35379565623589,96.47117417995469 111.34195427934173,87.07976792837144 113.84221436607186,84.89493355559534 117.15581207140349,84.66666666665697" stroke="#ffa600" stroke-linecap="round" stroke-linejoin="round" stroke-width="0.5"><title>2018-12-03 2.5km</title><desc>1543831552000</desc></polyline><polyline fill="none" points="147.22667321830522,84.86339314439101 151.04298989765812,85.84702425185242 152.04250140907243,86.56835237369523 152.92086000985,88.076580191002 154.647288984037,89.02741688740207 155.58622404001653,91.61761707862024 157.0400589654455,92.99467950730468 155.52564758469816,99.9782888375048 154.13238911447115,101.15860654460266 153.13287760317326,105.81427419479587 152.2242307746783,106.66671520480304 148.61993168864865,106.69950136553962 146.19687347940635,108.20766219333746 144.53102096065413,108.66666666665697 142.07767452381086,107.84701549535384 139.23058112803847,107.84701549535384 136.17147013905924,105.25690805219347 135.08109394472558,102.86350447303266 134.9599410344381,100.69959446819848 136.2017583665438,99.22419535979861 139.01856353483163,97.55207056429936 139.83634568029083,96.43731727337581 142.31998034461867,86.43720189144369 145.07620905770455,84.66666666665697 147.04494385269936,84.76502991616144" stroke="#ffa600" stroke-linecap="round" stroke-linejoin="round" stroke-width="0.5"><title>2018-11-20 2.5km</title><desc>1542709998000</desc></polyline><polyline fill="none" points="177.65939726738725,84.7969279223471 181.41974045184907,85.87158184312284 182.56288477999624,86.7182770644431 182.98404321656562,87.92318674863782 185.3004146182211,89.35604812047677 186.0825660006376,91.63559090235503 187.58670327428263,93.19869928070693 186.23297972790897,100.1674914243049 184.63859421771485,101.50262153006042 183.46536714409012,105.99644498800626 182.08156085235532,106.81053864138084 178.9529553229222,106.61515629882342 176.66666666662786,108.37359432934318 174.92186742916238,108.66666666665697 172.36483406368643,107.91770364754484 169.14598029770423,107.68975813352154 165.98729202279355,103.81466673768591 165.7466300589731,101.92595463921316 166.3783677141182,100.20005562040024 167.55159478762653,99.02774307920481 170.37937286228407,97.52978372271173 170.7704485533759,96.81336661623209 172.8160752458498,87.0439286485198 175.82434979325626,84.66666666665697 177.23823883070145,84.69923198412289 177.44881804904435,85.05745032054256" stroke="#ffa600" stroke-linecap="round" stroke-linejoin="round" stroke-width="0.5"><title>2018-10-29 2.5km</title><desc>1540808094000</desc></polyline><polyline fill="none" points="25.95803316135425,111.33333333334303 28.58273298945278,112.23586285559577 29.539976456202567,112.93782904281397 30.03403760038782,114.14119716823916 31.794130426249467,114.97686763346428 33.091040929430164,118.05212192964973 34.634982004761696,119.4560355640424 33.21455621556379,126.10785408344236 31.23831163905561,128.78192499553552 30.281068172305822,132.92670432847808 28.6444906325778,133.86261709744576 27.162307200138457,133.1606826983625 25.92715433984995,133.26095910641016 22.62312043865677,135.33333333334303 19.411723002092913,134.5645504303102 16.231204386684112,134.39742354291957 13.297716343658976,131.58968279903638 12.031684661866166,128.04655703736353 13.54474691557698,125.50618599561858 17.126690210425295,122.99922719673486" stroke="#ffcc00" stroke-linecap="round" stroke-linejoin="round" stroke-width="0.5"><title>2018-10-22 1.9km</title><desc>1540203485000</desc></polyline><polyline fill="none" points="57.7657400208991,112.18465114827268 59.88302356679924,113.2324247219949 60.51820863049943,114.5748810681398 62.51450454513542,115.65539181997883 63.633640133659355,118.503998709406 64.99475098447874,119.74821218452416 63.633640133659355,126.3621316619101 61.6675911268685,128.91599549670354 60.97191224747803,132.55031534162117 59.580554488813505,133.56530035607284 56.404629170079716,133.4343346756359 53.22870385134593,135.33333333334303 49.87129708577413,134.5475417515554 47.300309922895394,134.61302443538443 46.21142124210019,133.9909385557694 43.912656249594875,131.30613705789438 43.00524901552126,127.83551640206133 44.668828944442794,125.74003444271511 47.0280877527548,124.49583743920084 47.90524807886686,123.4153477929649 50.143519255914725,113.46162486786488 52.71450641879346,111.36607635585824 54.40833325532731,111.33333333334303" stroke="#ffae00" stroke-linecap="round" stroke-linejoin="round" stroke-width="0.5"><title>2018-10-18 2.4km</title><desc>1539858728000</desc></polyline><polyline fill="none" points="85.69337641412858,111.33333333334303 90.51444827148225,113.42734457101324 90.90132440812886,114.5871004035289 92.98450360586867,115.74685321535799 94.11537231318653,118.61400692423922 95.51407834584825,119.90260931960074 94.1748917188961,126.53885260477546 92.38930954947136,128.85829295485746 91.70483638450969,132.46628726643394 90.66324678563979,133.40049531540717 87.59799739473965,133.1427829459135 85.0089032491669,134.81791068203165 83.28284048533533,135.33333333334303 80.36638960870914,134.30248743420816 78.55104773642961,134.52798517851625 77.36065962351859,134.17363152912003 74.80132518068422,131.435434731422 74.05733261012938,129.72807997168275 73.81925498752389,128.5039347942802 74.32516993558966,126.53885260477546 75.6643565625418,125.34691328142071 77.83681486861315,124.34825895968243 78.7891253590351,123.22074332417105 81.25918069342151,113.23405163854477 84.20539127290249,111.42998022263055 87.59799739473965,112.20315458168625" stroke="#ffa000" stroke-linecap="round" stroke-linejoin="round" stroke-width="0.5"><title>2018-09-04 2.6km</title><desc>1536056460000</desc></polyline><polyline fill="none" points="116.97837222355884,112.00714784424054 119.82384489872493,112.64887499794713 121.21694089577068,113.51520518242614 121.69118634180631,114.798654196813 123.73636982706375,116.0820994968235 124.38845731504261,118.23186205336242 125.98903569485992,119.99658472207375 124.71450105903205,126.73455214319983 123.17320335994009,128.30672981322277 122.1950721279718,132.47778642430785 121.39478293806314,133.37616271458683 118.01578413648531,133.24782335595228 114.31074159068521,135.33333333334303 110.84282176778652,134.43496100671473 109.00512066518422,134.62746951560257 107.28598092403263,133.98577416114858 105.03331505623646,131.0339635743876 104.67763097176794,127.66502531484002 105.86324458639137,125.93241853200016 108.53087521938141,124.39231793207 109.30152406881098,123.461837894778 110.36857632210013,120.54204303547158 110.10181325871963,119.32278234997648 111.70239163842052,113.3868600767164 114.78498703648802,111.33333333334303 118.25290685938671,112.23175245366292" stroke="#ffa100" stroke-linecap="round" stroke-linejoin="round" stroke-width="0.5"><title>2018-08-27 2.6km</title><desc>1535365372000</desc></polyline><polyline fill="none" points="147.93247036240064,112.20903159386944 151.07835234771483,112.92256224504672 152.00713655294385,113.7333911517635 152.33670514193363,114.80368306301534 154.19427355239168,115.71180752915097 155.21294009999838,118.4037371018203 156.7709007023368,120.47943079503602 155.57246946985833,126.99834381349501 153.74486184015404,129.26858977598022 152.69623451156076,133.3550035408407 151.55772484082263,133.64688881326583 149.01105847163126,133.3225718321628 145.925098047941,135.26847019977868 143.8877649527276,135.33333333334303 141.58078483003192,134.52254349034047 139.48353017307818,134.4576802396041 137.5660402009962,133.3550035408407 135.58862866740674,130.50100419885712 135.22909929754678,128.23076447666972 135.9181972562801,126.51186104028602 139.03411846072413,124.4361952766485 140.1726281318115,122.87943964751321 141.61074561078567,115.54964258082327 142.50956903514452,113.18202765475144 144.60682369209826,111.69009949787869 145.8352157054469,111.33333333334303 148.8912153483834,111.91713236380019 148.7414114443818,112.3711977507337" stroke="#ffa300" stroke-linecap="round" stroke-linejoin="round" stroke-width="0.5"><title>2018-08-23 2.5km</title><desc>1535019295000</desc></polyline><polyline fill="none" points="177.82171790010761,111.43076488529914 181.45187891938258,112.43755635037087 182.41192150313873,113.18452920383424 183.19195610226598,114.77590200770646 185.23204659251496,115.94507026846986 185.98207986087073,118.2833976544207 187.54214905924164,119.87475238236948 186.13208651461173,126.82468446600251 184.66202130843885,128.54591270536184 183.79198271711357,132.4754845224379 182.95194545644335,133.28737523895688 179.8618083903566,132.99509475010564 175.8116287406301,135.20343150923145 172.93150098994374,134.39154425740708 169.18133464758284,134.03431340152747 166.03119492006954,130.26713434583507 165.70118028193247,127.60410939194844 167.2312481496483,125.55811607540818 170.53139453090262,123.44716081707156 171.521438445081,120.81657191095292 171.40143312234432,118.90045423898846 172.5414836901473,113.96397781267297 174.16155555017758,112.11278515678714 176.17164470953867,111.33333333334303 181.69188956532162,112.50251056085108 182.65193214896135,113.2170062562509 183.10195211006794,114.35370160956518 185.38205324613955,115.8801165560435 186.13208651461173,118.18596758981585 187.66215438221116,119.77732266313978 186.3120944991242,126.53239976995974 184.42201066249982,128.7082923873386 183.67197739402764,132.73528971144697 182.74193614115939,133.44975320610683 179.1417764525395,133.28737523895688 176.6816673320718,135.1384805831476 175.18160079524387,135.33333333334303 172.33147437509615,134.35906873684144 169.6613559393445,134.32659321380197 168.55130670208018,133.74203339891392 166.03119492006954,130.23465852695517 165.67117895116098,127.83144140712102 167.26124948030338,125.590592232591 169.87136525451206,124.19411535086692 170.80140650749672,122.99249223145307 171.521438445081,120.42685372498818 171.34143046068493,119.06283740964136 172.87149832840078,113.34691444237251 175.06159547227435,111.56067358839209 177.46170193131547,111.39828770369058" stroke="red" stroke-linecap="round" stroke-linejoin="round" stroke-width="0.5"><title>2018-08-20 5.0km</title><desc>1534760071000</desc></polyline><polyline fill="none" points="24.717178674764,138.73308708681725 27.69097398268059,139.33867984701646 28.898158216732554,140.1036379330617 29.51647209271323,141.53793076431612 31.518631310085766,142.74910774070304 32.51971091865562,145.36268881795695 33.99188681365922,146.8607100060326 32.66692850808613,153.71329517982667 31.047535023535602,155.56188129875227 30.282003558124416,159.09967104007956 29.51647209271323,160.1833126655256 28.30928785877768,160.5976455238997 28.30928785877768,160.1833126655256 25.953806426608935,159.8327230195282 23.480550922919065,161.87251341389492 22.685575939598493,162.0 18.85791861230973,161.1713365308242 16.64965476980433,161.2350799299602 15.53080108948052,160.62951726609026 13.881964087020606,158.7490805318812 12.704223370994441,156.58178756161942 12.67477985296864,154.5738448551856 13.646415943745524,152.88461612621904 16.620211251894943,151.22725334303686 17.415186235215515,150.30295215986553 18.1807177006267,147.88063641096232 18.327935290173627,144.82085011250456 19.38790193456225,141.2510725717002 21.301730598206632,138.7012137605343 22.92112408275716,138.0 26.04213698033709,139.11556682171067" stroke="#ffa000" stroke-linecap="round" stroke-linejoin="round" stroke-width="0.5"><title>2018-08-09 2.6km</title><desc>1533810532000</desc></polyline><polyline fill="none" points="55.16375207307283,138.67834880613373 58.59532869851682,139.4859055648849 59.78892056818586,140.51957608442171 60.32603690959513,141.71475463939714 62.08658491750248,142.5546079261403 63.250336990575306,145.33257292717462 64.68264723417815,146.85075579801924 64.65280743734911,147.5290911568154 63.310016583884135,153.76326786511345 61.579308372805826,156.41195908476948 60.74379406392109,160.12656054843683 59.58004199108109,160.5787707908603 56.446863332996145,159.99735753794084 54.11935918708332,162.0 51.672495854087174,161.8384969085455 49.255472317687236,160.99867989160703 46.778769188094884,160.9340785171953 45.256939554121345,159.93275601873756 43.31735276582185,156.63806614396162 43.556071139872074,154.1185810143943 44.66014361917041,152.6004228546517 47.196526342537254,151.08225953334477 48.00220085459296,150.08091494312976 48.80787536664866,147.3998845012975 48.47963760246057,146.36622991066542 50.29986520379316,140.3903674003377 51.612816260545515,139.09827850293368 53.701602032524534,138.0 56.89446028415114,139.00137168489164" stroke="#ffa100" stroke-linecap="round" stroke-linejoin="round" stroke-width="0.5"><title>2018-08-07 2.6km</title><desc>1533637506000</desc></polyline><polyline fill="none" points="87.3259878399549,138.64691716464586 87.35586785327177,139.00272120622685 90.16458909248468,140.03778589866124 91.12074951443356,141.55803282099077 92.76415023952723,142.39901825925335 94.31791092501953,145.79528951158863 95.45335142605472,146.76564798789332 94.3477909383364,153.29934023195528 92.67451019992586,155.56346873455914 91.80798981769476,159.76824839570327 90.82194938254543,160.35044554021442 87.0271877082996,159.99465848636464 85.32402695680503,161.70890259635053 84.09894641616847,162.0 80.42370479460806,161.09436301066307 77.85402366076596,161.19139563295175 76.71858315984719,160.64154382815468 75.37398256664164,159.38011654489674 73.87998190731741,156.59849508889602 74.14890202600509,153.913890530559 75.31422254024073,152.39368562077289 78.51138395094313,150.51768094793078 79.55718441226054,147.6713139990461 79.43766435957514,146.37750485012657 80.63286488689482,141.5256871956517 81.88782544061542,139.4555623040651 83.94954635028262,138.0 87.68454799824394,138.90568376841838" stroke="#ffa300" stroke-linecap="round" stroke-linejoin="round" stroke-width="0.5"><title>2018-08-06 2.5km</title><desc>1533550785000</desc></polyline><polyline fill="none" points="118.24897024675738,138.5589185244462 120.4053267139243,139.21646884953952 121.25572081375867,139.874018223054 121.95425882434938,141.28774615423754 123.89801676664501,142.241188089567 125.0217518270947,145.13437895849347 126.35808541241568,146.48233659591642 125.0217518270947,153.61658239123062 123.26022119179834,155.819299249677 122.40982709208038,159.66580906155286 121.3164632495027,160.22470094115124 118.40082633600105,159.76443709022715 115.9407576903468,161.70411730508204 114.69553775840905,162.0 110.95987796306144,160.98084768422996 108.07461226754822,160.88221991952742 106.49530893936753,159.89594109516474 104.30858125421219,156.5097008437151 104.61229343281593,154.04397604920086 105.76639971102122,152.49878169310978 108.4998093174072,150.85495214289404 109.41094585275277,149.4741307258082 110.10948386322707,147.07412161279353 110.20059751684312,144.57546852144878 112.0228705877671,139.874018223054 114.60442410502583,138.0 118.18822781112976,138.4931634395616" stroke="#ffa600" stroke-linecap="round" stroke-linejoin="round" stroke-width="0.5"><title>2018-08-01 2.5km</title><desc>1533119302000</desc></polyline><polyline fill="none" points="146.9338322832482,138.13043823637418 150.4582960618427,139.0761143208947 151.75361180957407,139.85874130405136 152.68744409282226,141.35877255667583 154.253872438916,142.23922335804673 155.63955905288458,145.27187406489975 156.99512204458006,146.41318893886637 155.60943543084431,153.45666821286432 154.07313070667442,155.1523041939945 153.01880393538158,159.42397425841773 152.11509527417365,160.20656591377337 148.801496849861,160.01091812728555 145.78913464571815,162.0 141.75256929243915,161.2174114578811 139.2523086630972,161.34784297592705 137.38464409660082,160.14134999437374 135.57722677418496,157.85878687215154 135.00487795541994,155.7066453428124 135.24586693174206,154.17405344481813 136.75204803375527,151.89146010761033 139.2523086630972,150.4892898982216 139.91502834798303,149.54363775943057 140.8488606311148,144.3588200849481 142.2044236230431,139.89135073221405 144.76493149634916,138.0 147.6869228342548,138.3913145958213" stroke="#ffa300" stroke-linecap="round" stroke-linejoin="round" stroke-width="0.5"><title>2018-07-30 2.5km</title><desc>1532945486000</desc></polyline><polyline fill="none" points="177.70825671753846,138.0966468892875 182.32101265736856,139.93293379966053 183.12452498229686,141.25376707004034 185.17794536845759,142.57459642234608 186.01121740916278,144.89409214479383 187.49920319626108,146.47263093560468 186.13025627215393,153.4954499755113 184.7017899166094,155.00952947622864 183.00548611942213,159.841663666768 179.3152813675115,159.841663666768 176.87498467683326,161.61343306745403 175.68459604715463,162.0 172.14318987412844,160.9369401281583 169.76241261488758,160.87251217549783 168.1851476804586,159.841663666768 166.39956473605707,157.29674619462457 165.83413013699464,154.88067184670945 166.19124672596809,153.10887566098245 170.65520408703014,149.9518395321793 171.69679413794074,147.05250092272763 172.11343015835155,143.02561042577145 172.85742305172607,140.35173501694226 173.60141594533343,139.32083900435828 176.87498467683326,138.0 179.67239795648493,138.57988102102536" stroke="#ffa100" stroke-linecap="round" stroke-linejoin="round" stroke-width="0.5"><title>2018-07-26 2.6km</title><desc>1532600028000</desc></polyline><polyline fill="none" points="24.929763613967225,165.37731777117006 28.71942054189276,166.572501168499 29.49525581835769,167.99379617904196 31.67356255662162,169.18897257209755 32.65827656141482,171.67622129508527 34.030908204615116,173.29131044860696 32.926834926358424,179.84851240436547 31.01708655327093,182.07729311243747 30.211411458440125,186.34101651457604 29.107338180183433,186.95473092552857 25.824958163895644,186.72862571437145 23.228893969091587,188.4728629499732 22.005461417604238,188.66666666665697 19.110999039607123,187.79454927894403 16.60445429990068,188.052954608429 15.530220840126276,187.5038431045832 12.87447700870689,183.78924755155458 12.635758462012745,180.5914405430667 13.262394646881148,179.654704860528 16.365735753206536,177.74892619921593 17.111731211538427,176.84448602236807 18.27548412629403,173.64662927840254 18.215804489678703,172.09614503697958 19.29003794968594,167.34775355336023 20.125552862882614,165.89415422745515 22.18450032756664,164.66666666665697 26.212875802186318,165.28041086895973" stroke="#ffa200" stroke-linecap="round" stroke-linejoin="round" stroke-width="0.5"><title>2018-07-18 2.6km</title><desc>1531909058000</desc></polyline><polyline fill="none" points="55.81778230809141,165.37636262053275 58.61895504524,166.21509274607524 59.63214518420864,166.89252746474813 60.04934112378396,168.05384173081256 62.16512053157203,169.24741157444078 63.02931212063413,171.40873261960223 64.69809587905183,173.21520187339047 64.60869674920104,173.86036769038765 63.237910090596415,180.24745891441125 61.53932662238367,182.50549958011834 60.82413358299527,186.15059824369382 59.93014228402171,186.82800267700804 56.7117736072978,186.66671600050176 54.56619448948186,188.11829398936243 52.86761102126911,188.66666666665697 49.828040604363196,187.86023602553178 47.324864966911264,187.9892650261172 45.71568062854931,187.11831854772754 43.33170383097604,183.24742473190418 43.30190412106458,180.02165421898826 47.65266177651938,176.63457006658427 48.487053655670024,174.60230722589768 49.79824089433532,167.3118912986538 50.45383451366797,166.27961038262583 53.07620899088215,164.66666666665697 56.59257476741914,165.3441037381126" stroke="#ffa300" stroke-linecap="round" stroke-linejoin="round" stroke-width="0.5"><title>2018-07-17 2.5km</title><desc>1531823317000</desc></polyline><polyline fill="none" points="85.7369907782413,164.66666666665697 90.41583618044388,166.18946268802392 91.24151478090789,167.61294134240597 93.32100162631832,168.8046875076252 94.024357471033,171.05575512856012 95.64513398311101,172.7440485767147 94.48306780471466,179.66267626776244 92.58706509275362,181.78127818147186 91.79196718125604,186.11776089001796 90.84396582527552,186.87912384263473 87.41892866801936,186.51499389283708 83.59634255501442,188.66666666665697 77.05207512970082,187.6404855286528 74.63620070624165,184.9922655094706 73.68819935026113,182.54264834849164 74.0551676171599,179.5633665623609 75.18665310647339,178.37164841702906 77.57194684108254,177.11372034114902 78.58110957487952,175.65716772267479 79.34562679741066,173.53853745581 80.4159509090241,167.01706709573045 82.0367274209857,165.1301268618554" stroke="#ffae00" stroke-linecap="round" stroke-linejoin="round" stroke-width="0.5"><title>2018-07-13 2.4km</title><desc>1531477594000</desc></polyline><polyline fill="none" points="117.18340140057262,165.6357360741531 119.4810665808618,166.1848744713643 121.12225599552039,167.12163841357687 121.54001330095343,168.2199108772911 123.59896002104506,169.51199266986805 124.5239940546453,171.74082497370546 126.04582423903048,173.2913104489562 124.76271251495928,180.042319864413 122.94248425518163,182.40030388650484 122.28600848931819,186.050309394137 120.82385792012792,186.987031660683 117.92939658893738,186.76092646591133 114.7365371825872,188.66666666665697 112.91630892280955,188.602065437095 110.58880393509753,187.82684995332966 108.76857567520346,188.02065395045793 106.76930857030675,186.7932272150647 104.6208424277138,183.14322777971392 105.15795896330383,179.81621115322923 108.35081836977042,177.78122760055703 110.02184759173542,175.03560017293785 110.55896412744187,169.96422041385085 111.66303700627759,166.47559452580754 114.22926045453642,164.66666666665697 117.18340140057262,164.98969003619277" stroke="#ffa600" stroke-linecap="round" stroke-linejoin="round" stroke-width="0.5"><title>2018-07-12 2.5km</title><desc>1531391566000</desc></polyline><polyline fill="none" points="146.96460122813005,164.92370164996828 150.40748561138753,165.79119362015626 151.41660689609125,166.53016692472738 152.24764795403462,168.0081098448136 154.2658905236749,169.26114455453353 154.9782114304835,171.51017234486062 156.58093347097747,173.34151513237157 155.3937319595134,179.76721956490655 153.55356961674988,182.2410909855971 152.93028882320505,185.83942481892882 152.09924776514526,186.6747481469356 148.5673232685076,186.44985355925746 146.19292024569586,188.24900707197958 144.44179801619612,188.66666666665697 141.56283435085788,187.67070852333563 139.15875129017513,187.79921937701874 137.58570928743575,186.8675148456241 135.41906652902253,183.52621355824522 135.44874656689353,179.89573270530673 136.6953081538668,178.80336982669542 138.8916309500346,177.7752611337928 140.13819253700785,176.3937363298901 140.96923359518405,174.14473327074666 141.32539404858835,169.90372508540167 142.9874761645915,165.9518400953384 145.77739971654955,164.66666666665697 148.83444360864814,165.27712450904073" stroke="#ffa000" stroke-linecap="round" stroke-linejoin="round" stroke-width="0.5"><title>2018-07-10 2.6km</title><desc>1531217771000</desc></polyline><polyline fill="none" points="179.31884200521745,165.37636262050364 181.46442205423955,166.05379861354595 183.282205151394,168.05384173057973 184.86159046529792,168.7635322929127 186.02377965848427,171.60228324640775 187.45416635787115,173.053910272778 186.32177688751835,179.79584940869245 184.44439434469678,182.0538923612039 183.96759877807926,185.11836093780585 182.86500903067645,186.53768661711365 179.348641728051,186.5699439664022 175.65347608795855,188.66666666665697 172.22650795406662,187.7634642504854 170.31932568817865,187.95700777936145 168.23334508494008,186.92477465470438 166.08776503591798,182.89259111721185 165.879166975501,181.05390332141542 166.29636309610214,179.89262291256455 167.60755090403836,178.4732760839106 169.87232984462753,177.44102100728196 170.97491959203035,175.92489203129662 173.1800990870688,166.27961038250942 175.623676365125,164.8924791381578 178.30565142643172,164.66666666665697 179.58703951130155,165.18280929053435" stroke="#ffa400" stroke-linecap="round" stroke-linejoin="round" stroke-width="0.5"><title>2018-07-09 2.5km</title><desc>1531132188000</desc></polyline><polyline fill="none" points="25.479389650048688,192.16646593611222 27.788250239216723,192.7112056367041 29.090684417635202,193.51229221461108 29.712300730054267,194.89015773893334 31.9027582120616,196.20393250253983 32.90918462281115,198.63921200105688 34.21161880122963,200.01706157566514 33.70840559597127,200.88222074578516 32.879583846079186,206.64990536149708 31.044335685437545,208.98900049526128 30.333917042589746,212.73793542719795 29.327490631956607,213.3146918315033 25.656994310673326,213.250607823662 23.851346926996484,214.88474712788593 22.045699543086812,215.33333333334303 19.08562186465133,214.4682023874775 16.717559722135775,214.4682023874775 15.148718552547507,213.73123765649507 12.958261070540175,210.84745083731832 12.455047865281813,208.09181478089886 14.02388903463725,205.78475745691685 17.664784579072148,203.41360268587596 18.316001668339595,198.28673816547962 20.09204827528447,193.031640441739 22.54891274846159,191.33333333334303 26.308211399940774,192.13442240352742" stroke="#ffa100" stroke-linecap="round" stroke-linejoin="round" stroke-width="0.5"><title>2018-06-28 2.6km</title><desc>1530182183000</desc></polyline><polyline fill="none" points="55.44334527372848,191.880998761917 58.83595065935515,192.7508189404325 59.996578817488626,193.4595600516186 60.65129213768523,194.8770388898265 62.52615300868638,196.0045756524196 63.4784632922383,198.51736159448046 64.90692871774081,200.09589935754775 63.448703596019186,206.76435428034165 61.78216059936676,208.72943547472823 61.097687583067454,212.49850136984605 60.32393547752872,213.43270935112378 56.36589586106129,213.40049531546538 54.49103498994373,215.0434081653366 53.27088743913919,215.33333333334303 49.81876266084146,214.5924130845524 47.94390178984031,214.7534828086791 45.7714439551346,213.65820753583102 43.56922642409336,210.95222178439144 43.09307128225919,209.3737225033401 43.4204279424157,207.53750201436924 44.52153670787811,205.9912052039581 48.06294057518244,203.4140319218277 50.26515810622368,193.81393018423114 53.09232926100958,191.36554896543385 54.31247681193054,191.33333333334303 56.72301221743692,192.2675857176655" stroke="#ffa100" stroke-linecap="round" stroke-linejoin="round" stroke-width="0.5"><title>2018-06-26 2.6km</title><desc>1530007699000</desc></polyline><polyline fill="none" points="86.30565024074167,192.01077040479868 89.4048191808397,192.68820644693915 90.388209325145,193.49467658362119 91.01400305354036,194.78502576815663 93.09998214768711,195.9785954391118 94.11317199340556,198.72056771727512 95.57335735950619,200.1076766824117 94.2323707989417,206.5592895799782 92.56358752341475,208.8495897090761 91.90799409383908,212.6237205976504 91.07360245613381,213.43015468018712 87.1996412811568,213.20435328406165 85.4712586030364,214.94624680757988 84.30907025048509,215.33333333334303 80.76290579035413,214.3978736543504 77.69353655166924,214.26884457905544 76.1141523802653,213.33338266724604 74.14737209142186,210.55924270127434 73.75997597398236,209.33345442844438 74.08777268882841,207.49476570167462 75.3393601452699,205.84961673044018 77.9319341625087,204.26897768798517 78.85572490422055,203.13994637032738 80.7331060890574,194.49469752729055 81.83569503878243,192.97853586421115 83.26608070346992,191.6559225433448 84.4878684587311,191.33333333334303 87.46783859317657,192.26884139934555" stroke="#ffa200" stroke-linecap="round" stroke-linejoin="round" stroke-width="0.5"><title>2018-06-22 2.6km</title><desc>1529663248000</desc></polyline><polyline fill="none" points="117.10880278085824,191.88247292247252 120.98797972488683,193.1745634089748 121.7936549364822,194.69276495234226 123.76308323128615,195.855639238609 124.80747702380177,198.63360444040154 126.15026904293336,199.99027883863891 124.74779737845529,206.74128776573343 123.2259664235171,208.48555099163787 122.15173280821182,212.7815776593634 121.01781954767648,213.62139759215643 117.82495852431748,213.26608935176046 115.94504969753325,214.881124530104 114.36353909724858,215.33333333334303 107.17214183940087,213.5890968546446 104.66559673682787,210.42361325171078 104.5163976236945,207.6134202303656 105.41159230307676,205.96605747833382 108.5746135036461,203.89877013181103 109.320609069895,202.9620274019544 111.23035771935247,194.04672237337218 113.94578158017248,191.4302403687616 115.16921430884395,191.33333333334303 118.1830363960471,192.30240274078096" stroke="#ffa200" stroke-linecap="round" stroke-linejoin="round" stroke-width="0.5"><title>2018-06-21 2.5km</title><desc>1529576039000</desc></polyline><polyline fill="none" points="147.4041612163419,192.35735992895206 150.30116751533933,193.09337758013862 151.69054808735382,193.92539605867933 152.25221257389057,195.2054214310774 154.4988705200376,196.7094465100672 155.03097371780314,198.85347341932356 156.7159671774134,200.4854869362316 155.38570918305777,207.42947713451576 153.93720603350084,209.02945942457882 152.99124479305465,213.22138558296137 152.57738675025757,213.60537683291477 148.43880632310174,213.28538414771901 147.1085483286297,214.62935187015682 145.39399358036462,215.33333333334303 141.93532279483043,214.56535349969636 138.9496326294029,214.4373567311559 137.38288432487752,213.60537683291477 135.84569730900694,211.6214184538403 135.28403282247018,209.95744650124107 135.66832957637962,207.10947998208576 139.92515515862033,203.58949602764915 142.14225181599613,193.9893974152801 144.38890976225957,191.81334609526675 145.51223873533309,191.33333333334303 148.70485792204272,192.70936852358864" stroke="#ffa000" stroke-linecap="round" stroke-linejoin="round" stroke-width="0.5"><title>2018-06-19 2.6km</title><desc>1529404176000</desc></polyline><polyline fill="none" points="168.1975484068971,207.96240124403266 169.77699811430648,211.26458707160782 171.5743029541336,212.7977402243996 178.92691366188228,215.0974645401002 183.1206249545794,214.09502140624681 185.78935032244772,210.2621392183355 185.5170314074494,206.72407810541335 181.97688551107422,202.24251195520628 181.97688551107422,196.10980250587454 173.9707094070036,191.9819912854582 170.5939548597671,192.39477334939875 167.81630192580633,195.16630464373156 168.2520121897105,198.11473183211638 171.90108565217815,201.00418011593865 169.0145051521249,207.31375602533808 169.5591429823544,210.73387953848578 173.8073180578649,213.7412176525104 179.96172553952783,215.33333333331393 183.06616117153317,214.50779225787846 185.78935032244772,210.67491201334633 185.62595897330903,206.54717464611167 181.92242172802798,201.59386217908468 182.14027685998008,196.34567680052714 174.78766615246423,191.6281779211131 171.4653753878083,191.33333333331393 167.543983010808,195.34321057616035 167.543983010808,197.52504724869505 171.73769430303946,200.94521188607905 168.46986732212827,207.13685269415146 169.12343271821737,210.3800743240281 173.5894629259128,214.03605412464822 180.07065310538746,215.2153989452636 183.17508873762563,213.7412176525104 185.6804227565881,209.96730137971463 184.86346601112746,205.54472098406404 181.97688551107422,202.5963207061286 182.14027685998008,196.75845665170345 175.93140559573658,192.21786677622003 171.90108565217815,191.45127118128585 169.12343271821737,193.27930563874543 167.65291057666764,195.63805371138733 167.70737435971387,198.05576339294203 170.64841864281334,199.64790974959033 171.90108565217815,201.82973488472635 169.23236028430983,205.36781726847403" stroke="red" stroke-linecap="round" stroke-linejoin="round" stroke-width="0.5"><title>2018-06-17 3.9km</title><desc>1529240406000</desc></polyline><polyline fill="none" points="25.523247575154528,218.0653968269762 29.359373212442733,219.63491783451173 29.721841776627116,220.77935679946677 31.896653161616996,222.0218872516125 32.923647426767275,224.86661516031018 34.282904542284086,226.27262349176453 32.98405885405373,233.40069145918824 31.111304605961777,235.59140536183259 30.597807473386638,239.31886431766907 29.661430349340662,240.13628541803337 25.946127566625364,239.90740765896044 23.49946475867182,241.77112318453146 22.23082478402648,242.0 19.21025341609493,241.05179529561428 17.39791059528943,241.28067247534636 15.706390629289672,240.82291800001985 13.380550675909035,238.10907837646664 12.38376212446019,235.06825076803216 12.685819261241704,233.56417793795117 13.561784958001226,232.28898183550336 16.18968204804696,230.7848997573019 17.4583220226923,229.3135102725064 19.45189912558999,219.92920241656248 22.200619070441462,218.0 25.009750442695804,218.0" stroke="#ffa500" stroke-linecap="round" stroke-linejoin="round" stroke-width="0.5"><title>2018-06-11 2.5km</title><desc>1528712400000</desc></polyline><polyline fill="none" points="55.653883783495985,218.4193659274606 58.574255149345845,219.3226142777421 59.82584287750069,220.19360202530515 60.27283849474043,221.45169243466808 62.41841745725833,222.64526210562326 63.28260898392182,225.12916712346487 64.80239408230409,226.5807935197954 63.49120693851728,233.2904719041253 61.6436250541592,235.3872256950126 61.077430605655536,239.19361507633585 60.15363966336008,240.06456401143805 56.458475894643925,239.83876259895624 53.32950657408219,242.0 51.51172439754009,241.87097119539976 49.753541636513546,241.09679758391576 47.19076676457189,241.22582661249908 46.08817757549696,240.58068109629676 44.59819218481425,238.7742686860729 43.197605917579494,235.3872256950126 44.002198028494604,233.0001513713505 47.90595975203905,229.8066130366933 50.1409378380049,220.16134325021994 53.21030774281826,218.0 55.62408407579642,218.09677678742446" stroke="#ffa500" stroke-linecap="round" stroke-linejoin="round" stroke-width="0.5"><title>2018-06-04 2.5km</title><desc>1528107350000</desc></polyline><polyline fill="none" points="86.95917668228503,218.8163474962057 89.2516866979422,219.11023223324446 90.36777710029855,219.73065493881586 91.03139842045493,221.06945892356453 93.1429208033951,222.2449908553681 94.01769436197355,224.66135243314784 95.58625384629704,226.29402185144136 94.22884660027921,233.08586324806674 92.3284764556447,235.4695141268021 91.78551355726086,239.093945452536 90.54876473313197,240.1388211515732 87.07983510405757,240.0082118214341 84.48567903379444,241.80408679830725 82.58530888927635,241.934695608943 80.17214045184664,241.1183899230091 77.1556799049722,241.0530854044191 75.79827265883796,239.8449501056748 73.83757330325898,236.71031371233403 73.71691488148645,233.6083083533449 75.01399291667622,232.1389299535076 77.819301225245,230.73485279126908 78.54325175646227,229.65730223961873 80.56428032286931,220.22046173538547 82.40432125644293,218.42450088227633 83.58074086974375,218.0 86.23522615106776,218.0 89.28185130353086,218.84900136530632 90.69958776037674,219.86127013649093 91.30287986982148,221.1674200348789 93.29374383075628,222.50621975769172 93.95736515102908,224.69400587928249 95.61641845188569,226.32667517953087 94.10818817839026,233.31443305598805 92.237982639228,235.56747211283073 91.8156781627331,238.93068340606987 90.94090460403822,239.97555948302033 87.47197497531306,239.8776024535473 84.63650206115562,241.7714345897839 83.39975323691033,242.0 80.35312808468007,241.0857376648928 77.87963043607306,241.18369443219854 76.22057713533286,240.30208276107442" stroke="red" stroke-linecap="round" stroke-linejoin="round" stroke-width="0.5"><title>2018-05-30 4.0km</title><desc>1527676266000</desc></polyline><polyline fill="none" points="116.235815958702,218.22795717266854 119.84574646037072,218.94439324943232 120.89864285686053,219.59569778412697 121.7710427279817,221.19138991110958 123.93700102891307,222.46142654053983 124.68906988354865,224.8712297815946 126.16312483826187,226.46690320639755 124.83948365447577,232.9797973005625 123.54592522466555,234.44518548596534 122.85402187844738,235.97569694244885 122.55319433670957,239.06926804131945 121.07913938176353,239.9810533617274 118.04078120959457,239.81823468994116 115.45366434997413,241.60923684114823 113.49828532827087,242.0 111.12174774811137,241.15334606045508 109.2866997430101,241.31616424940876 107.69231377146207,240.79514583744458 106.69958288350608,240.04618081398075 104.89461763272993,237.21312793294783 104.503541828366,234.77082665715716 104.77428661601152,233.5008247574442 109.04603770957328,230.11413550828001 110.03876859741285,227.4438433276955 109.88835482660215,226.27151492761914 111.24207876482978,220.60521795033128 113.01696126139723,218.84669748792658 114.58126447885297,218.0 117.01796756742988,218.1628265636391 116.35614697553683,218.58617535355734" stroke="#ffa400" stroke-linecap="round" stroke-linejoin="round" stroke-width="0.5"><title>2018-05-28 2.5km</title><desc>1527502477000</desc></polyline><polyline fill="none" points="148.5290671888506,218.52460375070223 150.89154911367223,218.9836315344728 152.04250184621196,219.8033228489221 152.7391311317915,221.18040091937291 154.82901898841374,222.52468738050084 155.7679541123798,224.88537590613123 157.1612126835389,226.75424560139072 155.73766588245053,233.47555536936852 153.7689309451962,236.1640513681341 153.43576041737106,239.27875240313006 152.61797821265645,240.13119316665689 148.1656084310962,240.29512389891897 145.62139712751377,242.0 143.7738151093945,241.96721398155205 141.4719096441986,241.18034882863867 139.32144532783423,241.24592097688583 137.8676102971658,240.65577130118618 136.4137752664974,239.1148213033448 134.8387873165775,235.01652453886345 136.38348703680094,232.5247419916268 139.13971594918985,230.72146976200747 139.89692169427872,229.63950298039708 142.16853892977815,220.1311989595415 144.01612094778102,218.5901791768847 145.74255004664883,218.0 150.67953150509857,219.01641921553528" stroke="#ffa000" stroke-linecap="round" stroke-linejoin="round" stroke-width="0.5"><title>2018-05-24 2.6km</title><desc>1527157408000</desc></polyline><polyline fill="none" points="177.77079922694247,218.7012137605052 181.0684751404915,219.2749332797539 181.92233765381388,219.81677880632924 183.0411919815233,221.60167700363672 185.04335235769395,222.7809807737067 186.22109375533182,225.74516279649106 187.3105045480188,226.82883726721047 186.1033196154749,233.33082811738132 184.3661510539241,235.5937534046243 183.6006191454362,239.2590302695171 182.65842602727935,240.02395376990899 179.1252018342493,240.08769733499503 176.71083196916152,241.840641761577 175.0619940124452,242.0 172.38263233273756,241.26695162596297 170.40991549170576,241.29882331978297 168.79052106989548,240.4701585318835 166.9650219035102,238.36661784080206 166.02282878535334,234.828822213487 166.87669129867572,232.72525459044846 169.87993186269887,231.004146337742 170.91045558569022,229.5380117825407 171.46988274948671,227.5937823476561 171.38155214465223,225.8726540489879 172.94205949665047,220.3904968726565 176.53417075949255,218.0 178.30078285594936,218.50997375469888" stroke="#ffa300" stroke-linecap="round" stroke-linejoin="round" stroke-width="0.5"><title>2018-05-23 2.5km</title><desc>1527071198000</desc></polyline><polyline fill="none" points="25.29747343552299,245.50427234350354 28.80911786062643,246.63181595870992 29.791187911760062,248.40366444233223 31.63628921995405,249.3379089856462 32.588599572423846,252.01177046602243 34.017065101419576,253.3648026875162 32.82667716068681,259.61446959819295 31.011335551040247,262.1916262882296 30.47566097776871,265.9606910929142 28.868637257721275,266.830470748886 25.77362861193251,266.63718652765965 22.67861996591091,268.66666666665697 18.98841734987218,267.9579603673774 16.54812207131181,267.99017431456014 14.613741667708382,266.63718652765965 12.709120962535962,262.83591313046054 12.649601565441117,260.9352642649028 13.15551644039806,259.74332778685493 16.72668026247993,257.42387468530796 17.381393629941158,256.3930027624301 19.58361132023856,246.76067790432717 22.67861996591091,244.66666666665697 25.14867494290229,244.79552918102127" stroke="#ffa500" stroke-linecap="round" stroke-linejoin="round" stroke-width="0.5"><title>2018-05-22 2.5km</title><desc>1526985482000</desc></polyline><polyline fill="none" points="55.132713689352386,244.79746031106333 58.87822028901428,245.54952303195023 60.11665392271243,246.4323776725505 60.56973939854652,247.60951451057917 62.804961078916676,248.9828369463503 63.59030923701357,251.40249013225548 65.07038845773786,252.87389451958006 63.68092633213382,259.70768766492256 61.83837873057928,262.3561634478101 61.11344196938444,265.98553098455886 60.05624252604321,266.86834570899373 56.52217581507284,266.70486163083115 54.619216816849075,268.2416096313682 52.95790340565145,268.66666666665697 46.70532384037506,267.65306846113526 45.225244619417936,266.5413774935587 43.65454830357339,264.15450235598837 42.92961154237855,260.9828816457011 44.470102159888484,259.2499248456443 47.671906188712455,257.1245913973835 48.819722727057524,254.44338725271518 48.698899933719076,252.57961402530782 49.846716472296976,247.8057036854152 52.62564072350506,245.02634909772314 54.19633703958243,244.66666666665697 58.93863168579992,245.6476180772297 59.9052140340209,246.3996793832339 60.63015079521574,248.0345909485186 62.77475538046565,249.21172361331992 63.227840856299736,251.66407348462963 64.73812577547505,253.52785048744408" stroke="#ff8500" stroke-linecap="round" stroke-linejoin="round" stroke-width="0.5"><title>2018-05-21 3.0km</title><desc>1526897718000</desc></polyline><polyline fill="none" points="85.78886377986055,244.96216001998982 90.48995979421306,246.5052888498758 91.24820108688436,247.98274770597345 93.28028775099665,249.36170496509294 94.09918834723067,251.7584540398384 95.40336337056942,253.0060718363966 94.28116625745315,260.4260436652985 92.67369471688289,261.9034572026576 91.49083830043674,266.2043447898468 90.64160805277061,266.9594582520949 87.60864288220182,266.7296412443975 85.30358935263939,268.20703426364344 83.45348059863318,268.66666666665697 78.26711015694309,267.91155604441883 75.93172697571572,266.69681023372686 73.89964031148702,263.51219091840903 73.80865135625936,260.62303241487825 74.99150777282193,259.244109372783 78.57040667405818,256.9130632743763 79.38930727005936,254.31935002215323 79.20732935983688,252.44792745669838 80.45084507984575,246.99777566976263 81.30007532751188,246.0456340025412 84.87897422874812,244.66666666665697 89.8833667600993,245.94713647465687 90.61127840098925,246.53812132123858 91.005563873332,247.7529210887733 93.09830984077416,249.00054989743512 94.2508366056718,251.82411821989808 95.52468197722919,253.13739982596599 95.40336337056942,254.22085429000435" stroke="#ff8500" stroke-linecap="round" stroke-linejoin="round" stroke-width="0.5"><title>2018-05-17 3.0km</title><desc>1526550380000</desc></polyline><polyline fill="none" points="116.26475877687335,244.66666666665697 119.89884493290447,245.46007524325978 121.02877088065725,246.22042383629014 121.54792604583781,247.47664917452494 123.71616232395172,248.60063733891002 124.87662681075744,251.5758867810946 126.25086107139941,252.83209739561426 124.87662681075744,259.67507878452307 123.13593008054886,261.98910727744806 122.00600413279608,266.55101484488114 121.15092503721826,267.0138145177625 117.57791595929302,266.9146431987174 115.50129529868718,268.3691537209961 113.60790587274823,268.66666666665697 110.85943735123146,267.8402413393487 107.8666605168255,267.5757849190268 106.24811794306152,266.5179577074887 104.41580559534486,263.9394936215831 104.44634413463064,260.9973822152242 105.6373471604893,259.11309866787633 109.02712500363123,256.63376637361944 111.25643835996743,247.21218096921802 113.79113710753154,245.12948850376415 114.9821401333902,244.66666666665697 116.81445248110685,244.76584281411488 120.8760781850433,246.0881893892656 121.70061874156818,247.64194172495627 123.89939355861861,249.19568877713755 124.51016434119083,251.67506142886123 125.82332152372692,252.99738800892374 125.85386006289627,254.48500083747786" stroke="#ff8500" stroke-linecap="round" stroke-linejoin="round" stroke-width="0.5"><title>2018-05-16 3.0km</title><desc>1526466569000</desc></polyline><polyline fill="none" points="155.12134363665245,250.20772110915277 156.19269231823273,252.30170628865017 157.53187817020807,253.6547376292292 156.9366844581673,260.2587601693522 154.55590961012058,262.28826937437407 154.2583127542166,266.7016146108799 151.07402639486827,266.79825671800063 148.84204997494817,268.66666666665697 144.85425210453104,267.92574641792453 140.7176558059873,267.92574641792453 139.05111341224983,267.05596890105517 134.52764120092615,262.8359131309262 134.46812182979193,261.54733851432684 137.80120661715046,258.9057488942635 139.9736636658199,257.87488040170865 141.13429140427615,256.45743232793757 141.69972543080803,254.65340098153683 141.37236888916232,253.0104375036026 142.68179505551234,248.01707992021693 143.99122122197878,246.019721207791 145.4196861308301,244.82774480388616 146.99694946757518,244.66666666665697 151.57994105003309,246.08415227380465 152.56201067497022,246.857324339333 153.157204387011,248.53252587551833 155.3594211214222,249.66006182230194 156.28197137499228,252.46278166386764 157.44259911344852,253.30037267543958" stroke="#ff9400" stroke-linecap="round" stroke-linejoin="round" stroke-width="0.5"><title>2018-05-15 2.8km</title><desc>1526379442000</desc></polyline><polyline fill="none" points="178.6309902255889,244.73260246412246 182.83372900332324,246.44692984950962 183.26009380677715,247.86454185389448 185.42237245326396,249.38105213886593 186.1837381736841,251.78767766585224 187.67601498612203,253.17230577065493 186.57964834850281,259.93054923438467 184.60009747499134,262.4030522904359 183.83873175433837,266.16123124590376 182.86418363195844,266.8864902840578 180.03190315153915,266.49089458811795 177.4128050727304,268.2051401239878 175.61598197219428,268.66666666665697 172.265972801717,267.7765793444996 169.76869323814753,267.94141046120785 168.0936886528507,266.952422866656 165.6573183471337,263.49094938556664 165.77913686225656,260.5569179439044 167.1495951594552,259.17231227626326 170.01233026874252,257.75473544892156 170.74324136052746,256.79869277315447 171.474152452196,254.42506090688403 171.7177894829074,250.666785166075 173.30143018171657,246.51286538940622 176.0423467757646,244.66666666665697 179.39235594624188,245.4249277615454" stroke="#ffa300" stroke-linecap="round" stroke-linejoin="round" stroke-width="0.5"><title>2018-05-14 2.5km</title><desc>1526293089000</desc></polyline></svg>