<?xml version="1.0" encoding="utf-8" ?>
<svg baseProfile="full" height="200mm" version="1.1" viewBox="0,0,200,200" width="200mm" xmlns="http://www.w3.org/2000/svg" xmlns:ev="http://www.w3.org/2001/xml-events" xmlns:xlink="http://www.w3.org/1999/xlink"><defs /><rect fill="#1a1a1a" height="200" width="200" x="0" y="0" /><text alignment-baseline="middle" fill="#e1ed5e" style="dominant-baseline: central; font-size:9.0px; font-family:Arial;" text-anchor="middle" x="100.0" y="100.0">2024</text><line stroke="#e1ed5e" stroke-width="0.3" x1="100.0" x2="100.0" y1="15.0" y2="10.0" /><path d="M 100.0 14.0 a86.0,86.0 0 0,1 42.35913384403234,11.155469271406648" fill="none" id="id73" stroke="none" /><text fill="#e1ed5e" style="font-size:6.75px; font-family:Arial;" text-anchor="middle"><textPath startOffset="22.145653131862478" xlink:href="#id73">January</textPath></text><line stroke="#e1ed5e" stroke-width="0.3" x1="143.13028292997686" x2="145.6673583964461" y1="26.7553504044142" y2="22.446841604673864" /><path d="M 143.63769802327073 25.89364864446614 a86.0,86.0 0 0,1 29.32050498858742,28.57503671076993" fill="none" id="id74" stroke="none" /><text fill="#e1ed5e" style="font-size:6.75px; font-family:Arial;" text-anchor="middle"><textPath startOffset="20.669276256404974" xlink:href="#id74">February</textPath></text><line stroke="#e1ed5e" stroke-width="0.3" x1="172.87174338648825" x2="177.1583165268699" y1="56.24261187166439" y2="53.66864786411523" /><path d="M 173.72905801456457 55.72781907015455 a86.0,86.0 0 0,1 12.242430191666344,42.057860355516425" fill="none" id="id75" stroke="none" /><text fill="#e1ed5e" style="font-size:6.75px; font-family:Arial;" text-anchor="middle"><textPath startOffset="22.145653131862474" xlink:href="#id75">March</textPath></text><line stroke="#e1ed5e" stroke-width="0.3" x1="184.99686870605535" x2="189.99668451229388" y1="99.2704041080226" y2="99.22748670261217" /><path d="M 185.99683186730306 99.26182062694052 a86.0,86.0 0 0,1 -10.086455211305974,41.156179273409016" fill="none" id="id76" stroke="none" /><text fill="#e1ed5e" style="font-size:6.75px; font-family:Arial;" text-anchor="middle"><textPath startOffset="21.40746469413373" xlink:href="#id76">April</textPath></text><line stroke="#e1ed5e" stroke-width="0.3" x1="174.33088141563837" x2="178.70328620479359" y1="141.23008692659167" y2="143.65538615756765" /><path d="M 175.20536237346943 141.71514677278685 a86.0,86.0 0 0,1 -30.301960400862466,31.631185727798858" fill="none" id="id77" stroke="none" /><text fill="#e1ed5e" style="font-size:6.75px; font-family:Arial;" text-anchor="middle"><textPath startOffset="22.145653131862474" xlink:href="#id77">May</textPath></text><path d="M 116.35404254752997 113.17365903436017 l 16.147176804799344 13.007022635273964 a41.7343665589277,41.7343665589277 0 0,0 -0.45421534400495134,0.5540688653041792 l -15.921514641555765 -13.282293782276636" fill="#ffa20f" stroke="none" /><path d="M 115.89218393027572 113.72728997021213 l 9.329818594455272 8.058875090891453 a33.328462302170294,33.328462302170294 0 0,0 -0.3777050134852333,0.42975897099318466 l -9.190102517011454 -8.217846339695932" fill="#ff1902" stroke="none" /><path d="M 115.41159269507618 114.26474011684316 l 8.004362298907344 7.408718245678117 a31.906829138480767,31.906829138480767 0 0,0 -0.37550412788330645,0.3987723711183828 l -7.876002337287778 -7.5450320767409975" fill="#ff0000" stroke="none" /><path d="M 114.91283532996324 114.78537596483092 l 23.66650482597094 23.464228222409268 a54.3267678713525,54.3267678713525 0 0,0 -0.6622900727757176,0.656629507876979 l -23.260222833065257 -23.86703774051491" fill="#a6ff21" stroke="none" /><path d="M 114.13192950727249 115.5334660781643 l 23.820128145885548 26.182493504600895 a56.3966307860632,56.3966307860632 0 0,0 -0.7217022410259312,0.6453505941622468 l -23.367160878036238 -26.58753962864653" fill="#8bff24" stroke="none" /><path d="M 113.03279911837588 116.46651593811092 l 20.981887398422234 26.509929303723045 a54.80851890409374,54.80851890409374 0 0,0 -0.7427599728274783,0.577574647414182 l -20.523717480959526 -26.86620500275802" fill="#a0ff22" stroke="none" /><path d="M 111.8722381534696 117.32195027204791 l 13.79086696648258 20.121287049150606 a45.39373288780412,45.39373288780412 0 0,0 -0.6465444763750166,0.4350239780683123 l -13.44342620201056 -20.355060701276038" fill="#ffda14" stroke="none" /><path d="M 111.5731344415666 117.5232005979908 l 18.998095230732652 28.765537580914536 a55.47294264658869,55.47294264658869 0 0,0 -0.7991124843607592,0.5179750577595125 l -18.501497114114883 -29.087426480377943" fill="#97ff23" stroke="none" /><path d="M 111.27062007382361 117.71928675628689 l 18.74583647079023 29.471568532760017 a55.92820832465902,55.92820832465902 0 0,0 -0.8145167770572577,0.5083187102840935 l -18.237155564943258 -29.789023039885656" fill="#91ff24" stroke="none" /><path d="M 110.96478420261333 117.91015095944535 l 17.255825078710096 28.186093440472938 a54.04874222390486,54.04874222390486 0 0,0 -0.7954617033657124,0.47765189739998204 l -16.769430618786945 -28.478159338408844" fill="#aaff21" stroke="none" /><line stroke="#e1ed5e" stroke-width="0.3" x1="143.1302829299769" x2="145.66735839644613" y1="173.24464959558577" y2="177.55315839532614" /><path d="M 143.63769802327073 174.10635135553383 a86.0,86.0 0 0,1 -40.68552437913181,11.842963189579606" fill="none" id="id78" stroke="none" /><text fill="#e1ed5e" style="font-size:6.75px; font-family:Arial;" text-anchor="middle"><textPath startOffset="21.407464694133747" xlink:href="#id78">June</textPath></text><path d="M 110.02825361518725 118.45085714620011 l 16.117775564655826 29.654891656070912 a54.751967176535366,54.751967176535366 0 0,0 -0.8296518244410029,0.44174286618998426 l -15.60633492442827 -29.927204989983466" fill="#a1ff22" stroke="none" /><path d="M 109.71004243097381 118.62028667847754 l 22.0258135659058 42.237401725003025 a68.635433951202,68.635433951202 0 0,0 -1.049379498457445,0.5358206490373245 l -21.297506845734773 -42.609280325713186" fill="#36ff71" stroke="none" /><path d="M 109.3889696526874 118.78422872680471 l 15.133976466761407 30.278090782448846 a54.84966802092307,54.84966802092307 0 0,0 -0.8458334676168556,0.41373953426698423 l -14.611982749882483 -30.533424066813055" fill="#9fff22" stroke="none" /><path d="M 108.73861861582097 119.09545874513695 l 17.998605653542313 39.330201584145584 a64.25291391480178,64.25291391480178 0 0,0 -1.0068939427063073,0.45037085339862426 l -17.32079830798038 -39.633376188454065" fill="#30ff34" stroke="none" /><path d="M 107.407793817531 119.65005319985036 l 12.029993047210551 31.910985806878962 a55.10325128023375,55.10325128023375 0 0,0 -0.8879780005885578,0.32607782159303367 l -11.480425894967865 -32.11279447748072" fill="#9cff22" stroke="none" /><path d="M 107.06938296918513 119.77432235084164 l 13.71424537338194 38.36118512660699 a61.73893776817385,61.73893776817385 0 0,0 -1.0010358071492762,0.34821221718156004 l -13.053703794187642 -38.59095577635714" fill="#49ff2c" stroke="none" /><path d="M 106.38641147887787 120.00534299687104 l 16.151762568702964 50.595166199297175 a74.11073598445287,74.11073598445287 0 0,0 -1.2152726733821109,0.37649458071344477 l -15.280849262449228 -50.86497736781726" fill="#3effb9" stroke="none" /><path d="M 105.69591212413111 120.21278271476187 l 13.738763086604344 48.75402340963724 a71.65282232785552,71.65282232785552 0 0,0 -1.1867706800547573,0.32345962618372803 l -12.899811005614891 -48.982683529965115" fill="#3bff99" stroke="none" /><path d="M 101.08105385017728 120.97215588758144 l 1.9289082626413978 37.4203049832581 a58.46998681779508,58.46998681779508 0 0,0 -1.002827763322803,0.04306573905937207 l -1.286254738717765 -37.447903290743305" fill="#71ff27" stroke="none" /><line stroke="#e1ed5e" stroke-width="0.3" x1="101.45913802915013" x2="101.54496967792366" y1="184.9874750549273" y2="189.98673829345242" /><path d="M 101.47630435890484 185.9873277026323 a86.0,86.0 0 0,1 -42.54439059252881,-10.42667462771756" fill="none" id="id79" stroke="none" /><text fill="#e1ed5e" style="font-size:6.75px; font-family:Arial;" text-anchor="middle"><textPath startOffset="22.145653131862474" xlink:href="#id79">July</textPath></text><path d="M 100.36049292484886 120.99690560180557 l 0.61582521053897 35.868731177789904 a56.87401729656846,56.87401729656846 0 0,0 -0.9763181353878179,0.008380516972988635 l -4.393300045479935e-15 -35.87401729656846" fill="#85ff25" stroke="none" /><path d="M 98.91894614982273 120.97215588758144 l -1.9161692382004172 37.17317131236131 a58.222525034817124,58.222525034817124 0 0,0 -0.997700212708999,-0.06001916728838863 l 2.5540138030418627 -37.13480016724823" fill="#74ff27" stroke="none" /><path d="M 93.95794788825049 120.11202640906438 l -9.626030366491486 32.04192439334571 a54.456619366658956,54.456619366658956 0 0,0 -0.8929831895739532,-0.2766484747880808 l 10.174654188937073 -31.87195933075098" fill="#a5ff21" stroke="none" /><path d="M 93.27111125876986 119.89276391827306 l -16.038710312998038 47.415597148321105 a71.05476082687986,71.05476082687986 0 0,0 -1.152082663346385,-0.4007541545618842 l 16.850298748389445 -47.133284561190635" fill="#3aff91" stroke="none" /><line stroke="#e1ed5e" stroke-width="0.3" x1="58.13341422392154" x2="55.67067388415222" y1="173.97424548756322" y2="178.32567169271397" /><path d="M 57.64086615596768 174.84453072859336 a86.0,86.0 0 0,1 -31.369924170532247,-30.572349798747897" fill="none" id="id80" stroke="none" /><text fill="#e1ed5e" style="font-size:6.75px; font-family:Arial;" text-anchor="middle"><textPath startOffset="22.145653131862474" xlink:href="#id80">August</textPath></text><path d="M 89.03521579738668 117.91015095944536 l -32.89435260783996 53.73045287833606 a84.0,84.0 0 0,0 -1.2233434848411497,-0.7634568126338093 l 33.81186022147082 -53.1578602688607" fill="#4dd2ff" stroke="none" /><line stroke="#e1ed5e" stroke-width="0.3" x1="26.387840678322732" x2="22.057713659400548" y1="142.50000000000003" y2="145.00000000000006" /><path d="M 25.521815274538298 143.00000000000003 a86.0,86.0 0 0,1 -11.493303480769221,-40.785679425670985" fill="none" id="id81" stroke="none" /><text fill="#e1ed5e" style="font-size:6.75px; font-family:Arial;" text-anchor="middle"><textPath startOffset="21.40746469413373" xlink:href="#id81">September</textPath></text><line stroke="#e1ed5e" stroke-width="0.3" x1="15.003131293944662" x2="10.003315487706104" y1="100.72959589197737" y2="100.7725132973878" /><path d="M 14.003168132696942 100.73817937305945 a86.0,86.0 0 0,1 10.791469493833604,-42.45332614584628" fill="none" id="id82" stroke="none" /><text fill="#e1ed5e" style="font-size:6.75px; font-family:Arial;" text-anchor="middle"><textPath startOffset="22.145653131862435" xlink:href="#id82">October</textPath></text><line stroke="#e1ed5e" stroke-width="0.3" x1="26.387840678322718" x2="22.05771365940052" y1="57.49999999999999" y2="54.99999999999999" /><path d="M 25.521815274538284 56.99999999999999 a86.0,86.0 0 0,1 29.574782752854787,-30.34633250058573" fill="none" id="id83" stroke="none" /><text fill="#e1ed5e" style="font-size:6.75px; font-family:Arial;" text-anchor="middle"><textPath startOffset="21.40746469413373" xlink:href="#id83">November</textPath></text><line stroke="#e1ed5e" stroke-width="0.3" x1="56.869717070023135" x2="54.33264160355391" y1="26.7553504044142" y2="22.446841604673864" /><path d="M 56.362301976729285 25.89364864446614 a86.0,86.0 0 0,1 42.16139366436587,-11.88097634709845" fill="none" id="id84" stroke="none" /><text fill="#e1ed5e" style="font-size:6.75px; font-family:Arial;" text-anchor="middle"><textPath startOffset="22.145653131862474" xlink:href="#id84">December</textPath></text></svg>