<?xml version="1.0" encoding="utf-8" ?>
<svg baseProfile="full" height="200mm" version="1.1" viewBox="0,0,200,200" width="200mm" xmlns="http://www.w3.org/2000/svg" xmlns:ev="http://www.w3.org/2001/xml-events" xmlns:xlink="http://www.w3.org/1999/xlink"><defs /><rect fill="#1a1a1a" height="200" width="200" x="0" y="0" /><text alignment-baseline="middle" fill="#e1ed5e" style="dominant-baseline: central; font-size:9.0px; font-family:Arial;" text-anchor="middle" x="100.0" y="100.0">2018</text><line stroke="#e1ed5e" stroke-width="0.3" x1="100.0" x2="100.0" y1="15.0" y2="10.0" /><path d="M 100.0 14.0 a86.0,86.0 0 0,1 42.46469731375804,11.215312516191453" fill="none" id="id1" stroke="none" /><text fill="#e1ed5e" style="font-size:6.75px; font-family:Arial;" text-anchor="middle"><textPath startOffset="22.20632615414155" xlink:href="#id1">January</textPath></text><line stroke="#e1ed5e" stroke-width="0.3" x1="143.23703022742887" x2="145.7803849466894" y1="26.81831364943548" y2="22.513508569990506" /><path d="M 143.74570117128098 25.957352633546492 a86.0,86.0 0 0,1 28.547481713284135,27.462654790039103" fill="none" id="id2" stroke="none" /><text fill="#e1ed5e" style="font-size:6.75px; font-family:Arial;" text-anchor="middle"><textPath startOffset="19.985693538727396" xlink:href="#id2">February</textPath></text><line stroke="#e1ed5e" stroke-width="0.3" x1="172.23445277983987" x2="176.4835382374775" y1="55.19839476539836" y2="52.563006222186495" /><path d="M 173.08426987136738 54.67131705675599 a86.0,86.0 0 0,1 12.851231095245387,41.99856678651699" fill="none" id="id3" stroke="none" /><text fill="#e1ed5e" style="font-size:6.75px; font-family:Arial;" text-anchor="middle"><textPath startOffset="22.20632615414155" xlink:href="#id3">March</textPath></text><line stroke="#e1ed5e" stroke-width="0.3" x1="184.98032266829074" x2="189.97916517819016" y1="98.17113171792111" y2="98.06355123074" /><path d="M 185.9800911702706 98.14961562048488 a86.0,86.0 0 0,1 -9.607161424134198,41.387399972396054" fill="none" id="id4" stroke="none" /><text fill="#e1ed5e" style="font-size:6.75px; font-family:Arial;" text-anchor="middle"><textPath startOffset="21.466115282336823" xlink:href="#id4">April</textPath></text><line stroke="#e1ed5e" stroke-width="0.3" x1="174.80103733775053" x2="179.2010983576182" y1="140.37084112569926" y2="142.7455964860345" /><path d="M 175.68104954172406 140.8457921977663 a86.0,86.0 0 0,1 -30.038265399797805,32.042727171017184" fill="none" id="id5" stroke="none" /><text fill="#e1ed5e" style="font-size:6.75px; font-family:Arial;" text-anchor="middle"><textPath startOffset="22.206326154141568" xlink:href="#id5">May</textPath></text><path d="M 115.80600337817218 113.82643327865902 l 23.97813005264326 20.97506924348257 a52.85756190593314,52.85756190593314 0 0,0 -0.6049451063455306,0.6796622399582449 l -23.61352609664939 -21.38470565318168" fill="#ffac0f" stroke="none" /><path d="M 115.56566222782051 114.09645910891815 l 25.731423608001332 23.302700225381287 a55.714867113218126,55.714867113218126 0 0,0 -0.6498836584487524,0.7053203576647341 l -25.326493541556857 -23.74217183784736" fill="#ffe615" stroke="none" /><path d="M 115.32070863581623 114.36230785411682 l 27.384568763316356 25.671502303197915 a58.535858014116286,58.535858014116286 0 0,0 -0.695443480187293,0.7291697086299828 l -26.9386187317501 -26.139079128410405" fill="#e2ff1b" stroke="none" /><path d="M 115.07121518719521 114.62390073753431 l 26.978109239377737 26.17739755572024 a58.59088348153082,58.59088348153082 0 0,0 -0.7085573403054053,0.7177648448426216 l -26.523511274016798 -26.637902894543526" fill="#e1ff1b" stroke="none" /><path d="M 114.0293411484842 115.62618273729858 l 25.122953362093615 27.98248727304776 a58.605616330811685,58.605616330811685 0 0,0 -0.7564524032899559,0.66748129469058 l -24.63755860589707 -28.410791709510626" fill="#e1ff1b" stroke="none" /><path d="M 113.75828350139079 115.86535959552629 l 20.567034665683604 23.71686851428377 a52.3925591034445,52.3925591034445 0 0,0 -0.6864286561826232,0.5849893925504974 l -20.155740532923936 -24.067382297057218" fill="#ffa20f" stroke="none" /><path d="M 113.48314897796784 116.09983520530334 l 20.40138467775426 24.360698810683097 a52.77514977642943,52.77514977642943 0 0,0 -0.7014819415775914,0.5772718812709206 l -19.979032607631975 -24.7082658108112" fill="#ffaa0f" stroke="none" /><path d="M 113.20401910651253 116.32954008644616 l 20.383012200350443 25.207871340020763 a53.41764895631198,53.41764895631198 0 0,0 -0.7199745377970912,0.5719913163740019 l -19.946080169836 -25.55499657039989" fill="#ffb711" stroke="none" /><path d="M 112.04921762599082 117.19931262002967 l 18.207822766580858 25.990238172560687 a52.73353573375729,52.73353573375729 0 0,0 -0.7479200270377515,0.5144262144954819 l -17.757745854920223 -26.299805176421266" fill="#ffa90f" stroke="none" /><path d="M 111.45004920935366 117.60387380957326 l 27.304010483615613 41.97854055126516 a71.07700924879205,71.07700924879205 0 0,0 -1.0313551511516938,0.6582596543450829 l -26.57737353041699 -42.442314634434055" fill="#33ff57" stroke="none" /><line stroke="#e1ed5e" stroke-width="0.3" x1="143.8653032363475" x2="146.44561519142675" y1="172.8068346515853" y2="177.08958963109032" /><path d="M 144.38136562736335 173.6633856474863 a86.0,86.0 0 0,1 -40.68145358897372,12.25698825130547" fill="none" id="id6" stroke="none" /><text fill="#e1ed5e" style="font-size:6.75px; font-family:Arial;" text-anchor="middle"><textPath startOffset="21.466115282336833" xlink:href="#id6">June</textPath></text><path d="M 109.89434966115114 118.52300852407294 l 14.863690867949545 27.826010003186276 a52.547046437271895,52.547046437271895 0 0,0 -0.8014903342486136,0.41930186210631437 l -14.382509631174434 -28.077741284237305" fill="#ffa60f" stroke="none" /><path d="M 107.59598834532513 119.57807347666477 l 11.375341206659543 29.319063674337517 a52.44846391014646,52.44846391014646 0 0,0 -0.8444946439714531,0.31931561381578294 l -10.868976341927816 -29.51052753825993" fill="#ffa30f" stroke="none" /><path d="M 105.53697534728816 120.25689768951611 l 13.074169022279579 47.83154839030843 a70.58619683982178,70.58619683982178 0 0,0 -1.1747881143384091,0.3102722184797892 l -12.248890465129671 -48.0495119580918" fill="#32ff4e" stroke="none" /><path d="M 104.83641907484287 120.43548508189849 l 7.449717401087227 31.477542880054056 a53.347086346712956,53.347086346712956 0 0,0 -0.8954177631340701,0.20379416765936323 l -6.9067794885602956 -31.601113781291104" fill="#ffb610" stroke="none" /><path d="M 104.13013068566511 120.58985236759428 l 6.290377878028701 31.359286594616467 a52.98396019212888,52.98396019212888 0 0,0 -0.8957629417356845,0.17167509971741363 l -5.749647321721312 -31.46291889268235" fill="#ffaf10" stroke="none" /><path d="M 103.7750983002368 120.6578951692458 l 5.777730913303452 31.616596451447737 a53.14018272630447,53.14018272630447 0 0,0 -0.9012347968636448,0.15669122152696408 l -5.232647144967757 -31.711366251495708" fill="#ffb210" stroke="none" /><path d="M 102.34483914955558 120.86867818915974 l 3.598759151919197 32.028357525474156 a53.229904641700685,53.229904641700685 0 0,0 -0.9114161235689378,0.09447200776361626 l -3.0469104317446565 -32.08555890169353" fill="#ffb410" stroke="none" /><path d="M 101.62511606390274 120.93702456842531 l 2.489828363341661 32.07746127944659 a53.173945474767244,53.173945474767244 0 0,0 -0.9131668997386547,0.06297733583610707 l -1.9372987028240756 -32.11556695979898" fill="#ffb210" stroke="none" /><line stroke="#e1ed5e" stroke-width="0.3" x1="102.19456741930631" x2="102.32365962044197" y1="184.97166512339345" y2="189.96999836594603" /><path d="M 102.22038585953345 185.97133177190398 a86.0,86.0 0 0,1 -42.740103519485714,-10.115201625700543" fill="none" id="id7" stroke="none" /><text fill="#e1ed5e" style="font-size:6.75px; font-family:Arial;" text-anchor="middle"><textPath startOffset="22.20632615414155" xlink:href="#id7">July</textPath></text><path d="M 97.65516085044442 120.86867818915974 l -3.528703984999317 31.404878198879082 a52.60250190254216,52.60250190254216 0 0,0 -0.8989331148433095,-0.10884828132851496 l 4.068764522894016 -31.33948438882522" fill="#ffa70f" stroke="none" /><path d="M 97.2962882734958 120.8252237178851 l -4.176356088748741 32.168203814464306 a53.43817637952147,53.43817637952147 0 0,0 -0.9111753857438982,-0.12628060581507478 l 4.72946006567947 -32.09154864315663" fill="#ffb811" stroke="none" /><path d="M 96.58105272829116 120.7198165907248 l -5.105337769600992 30.93983434466984 a52.358217790833166,52.358217790833166 0 0,0 -0.8879730056236022,-0.15438548912929206 l 5.6371597466966445 -30.84737027701954" fill="#ffa20e" stroke="none" /><path d="M 96.22490169976321 120.6578951692458 l -5.349370899464186 29.272547222310397 a50.75731489738996,50.75731489738996 0 0,0 -0.858118599331238,-0.16446047190130708 l 5.8524571133671195 -29.176129552060623" fill="#ff800b" stroke="none" /><path d="M 94.81253420990036 120.34920634021253 l -7.8637807348966335 30.847759438530396 a52.83431026147689,52.83431026147689 0 0,0 -0.8793379230404369,-0.23224113765299342 l 8.39360910074856 -30.70782695157382" fill="#ffab0f" stroke="none" /><path d="M 94.46302465271185 120.25689768951611 l -8.475037514883091 31.00573094259495 a53.14314253714571,53.14314253714571 0 0,0 -0.8803258532212801,-0.24878887945760703 l 9.007494536208984 -30.855253269798823" fill="#ffb210" stroke="none" /><path d="M 91.7346041902142 119.30500536409082 l -12.712664288779239 29.692232281992705 a53.2992336009233,53.2992336009233 0 0,0 -0.8402987762787155,-0.3683622894158736 l 13.221883739715699 -29.46900543928238" fill="#ffb510" stroke="none" /><path d="M 90.42595943632237 118.69057910512821 l -14.52855955234888 28.362862032039978 a52.86739690207976,52.86739690207976 0 0,0 -0.806376580356129,-0.4218581151315136 l 15.014627035231506 -28.108574497963748" fill="#ffac0f" stroke="none" /><line stroke="#e1ed5e" stroke-width="0.3" x1="58.666819895761336" x2="56.23545636021788" y1="174.27360380694188" y2="178.64263932499728" /><path d="M 58.180547188652646 175.14741091055294 a86.0,86.0 0 0,1 -31.652253787137756,-30.449443065178592" fill="none" id="id8" stroke="none" /><text fill="#e1ed5e" style="font-size:6.75px; font-family:Arial;" text-anchor="middle"><textPath startOffset="22.20632615414155" xlink:href="#id8">August</textPath></text><path d="M 89.7882731507175 118.34994917583269 l -15.229462908332717 27.36656340967152 a52.31876966504039,52.31876966504039 0 0,0 -0.7831652265414659,-0.4447016549871187 l 15.69827690179539 -27.10035858888977" fill="#ffa10e" stroke="none" /><path d="M 88.24862548938628 117.40417183066458 l -17.85167551368508 26.438918087822614 a52.901390381933155,52.901390381933155 0 0,0 -0.7503007104350304,-0.5160636702443551 l 18.304133108743 -26.127713628213158" fill="#ffad10" stroke="none" /><path d="M 87.95078237400918 117.19931262002967 l -18.527012551998553 26.445856543389795 a53.28983620917679,53.28983620917679 0 0,0 -0.7467496428461713,-0.5327860427380173 l 18.979489522693612 -26.123026238807558" fill="#ffb510" stroke="none" /><path d="M 87.36589467227662 116.77436683061367 l -19.5435173149027 25.948028775829574 a53.48460044989289,53.48460044989289 0 0,0 -0.7306283493846955,-0.5602146627170835 l 19.987274392780883 -25.607774771285122" fill="#ffb911" stroke="none" /><path d="M 84.43433777217949 114.09645910891817 l -46.69698668346152 42.28937732675451 a84.0,84.0 0 0,0 -0.9613646014066468,-1.0801033210365434 l 47.4180101345165 -41.4792998359771" fill="#4dd2ff" stroke="none" /><path d="M 83.72743513129214 113.27417163493432 l -24.699572235445874 20.14841322238353 a52.87518508172036,52.87518508172036 0 0,0 -0.569244392560048,-0.7102199050453024 l 25.042734540060785 -19.72026548375997" fill="#ffac0f" stroke="none" /><path d="M 82.85270091963577 112.12312394758628 l -26.291275385320194 18.587906395203014 a53.198469304356266,53.198469304356266 0 0,0 -0.5222040096553842,-0.7522738237240282 l 26.607340302137715 -18.132591309291975" fill="#ffb310" stroke="none" /><line stroke="#e1ed5e" stroke-width="0.3" x1="26.63291911575756" x2="22.317208475507996" y1="142.92168965132927" y2="145.44649492493687" /><path d="M 25.769776987707644 143.4266507060508 a86.0,86.0 0 0,1 -11.730757126820373,-40.83630448921669" fill="none" id="id9" stroke="none" /><text fill="#e1ed5e" style="font-size:6.75px; font-family:Arial;" text-anchor="middle"><textPath startOffset="21.46611528233685" xlink:href="#id9">September</textPath></text><path d="M 81.35079622478065 109.6543875284942 l -28.77541937703926 14.896563591096823 a53.40265987767174,53.40265987767174 0 0,0 -0.4155777959124133,-0.8199744172109171 l 29.02757584273794 -14.399034962183222" fill="#ffb711" stroke="none" /><line stroke="#e1ed5e" stroke-width="0.3" x1="15.007084014347285" x2="10.007500721073583" y1="101.09737516637583" y2="101.16192664675087" /><path d="M 14.007167355692545 101.11028546245083 a86.0,86.0 0 0,1 10.666146001902534,-42.60595125391555" fill="none" id="id10" stroke="none" /><text fill="#e1ed5e" style="font-size:6.75px; font-family:Arial;" text-anchor="middle"><textPath startOffset="22.20632615414155" xlink:href="#id10">October</textPath></text><path d="M 79.81627453868168 94.20196356495316 l -28.64238508738086 -8.227895917507674 a50.800746546406465,50.800746546406465 0 0,0 0.24866748415682877,-0.8383831373486532 l 28.496511706112322 8.719708441602865" fill="#ff810b" stroke="none" /><path d="M 80.2630227832202 92.82701384747504 l -22.585963126011873 -8.208389712614517 a45.03130025620178,45.03130025620178 0 0,0 0.2710357012471137,-0.726240928869535 l 22.441322836263133 8.595953778513394" fill="#ff0000" stroke="none" /><path d="M 81.26839172434947 90.50648371742162 l -27.891746483067156 -14.136039227915704 a52.26942799171198,52.26942799171198 0 0,0 0.4136517079209151,-0.7990434370089864 l 27.644285341986123 14.614055387185026" fill="#ffa00e" stroke="none" /><line stroke="#e1ed5e" stroke-width="0.3" x1="26.266209847984243" x2="21.928928074336255" y1="57.711370442889674" y2="55.22380399835377" /><path d="M 25.398753493254645 57.213857153982495 a86.0,86.0 0 0,1 29.58750427330803,-30.492523968695096" fill="none" id="id11" stroke="none" /><text fill="#e1ed5e" style="font-size:6.75px; font-family:Arial;" text-anchor="middle"><textPath startOffset="21.46611528233685" xlink:href="#id11">November</textPath></text><path d="M 86.10567301691215 84.25364557470407 l -20.700246825668287 -23.459461088315408 a52.286523188072124,52.286523188072124 0 0,0 0.679989225231513,-0.5896799553956708 l 20.29336380179 23.812306037130757" fill="#ffa00e" stroke="none" /><line stroke="#e1ed5e" stroke-width="0.3" x1="56.762969772571076" x2="54.21961505331055" y1="26.818313649435495" y2="22.513508569990535" /><path d="M 56.25429882871897 25.957352633546506 a86.0,86.0 0 0,1 42.265352541879196,-11.944610805530505" fill="none" id="id12" stroke="none" /><text fill="#e1ed5e" style="font-size:6.75px; font-family:Arial;" text-anchor="middle"><textPath startOffset="22.20632615414155" xlink:href="#id12">December</textPath></text><path d="M 89.94658935756843 81.56283822128135 l -15.022691894254312 -27.55043145628648 a52.380050114319985,52.380050114319985 0 0,0 0.7953161162879302,-0.4248303257796745 l 14.546230731438076 27.804940508567903" fill="#ffa20f" stroke="none" /></svg>