<?xml version="1.0" encoding="utf-8" ?>
<svg baseProfile="full" height="200mm" version="1.1" viewBox="0,0,200,200" width="200mm" xmlns="http://www.w3.org/2000/svg" xmlns:ev="http://www.w3.org/2001/xml-events" xmlns:xlink="http://www.w3.org/1999/xlink"><defs /><rect fill="#1a1a1a" height="200" width="200" x="0" y="0" /><text alignment-baseline="middle" fill="#e1ed5e" style="dominant-baseline: central; font-size:9.0px; font-family:Arial;" text-anchor="middle" x="100.0" y="100.0">2024</text><line stroke="#e1ed5e" stroke-width="0.3" x1="100.0" x2="100.0" y1="15.0" y2="10.0" /><path d="M 100.0 14.0 a86.0,86.0 0 0,1 42.35913384403234,11.155469271406648" fill="none" id="id73" stroke="none" /><text fill="#e1ed5e" style="font-size:6.75px; font-family:Arial;" text-anchor="middle"><textPath startOffset="22.145653131862478" xlink:href="#id73">January</textPath></text><line stroke="#e1ed5e" stroke-width="0.3" x1="143.13028292997686" x2="145.6673583964461" y1="26.7553504044142" y2="22.446841604673864" /><path d="M 143.63769802327073 25.89364864446614 a86.0,86.0 0 0,1 29.32050498858742,28.57503671076993" fill="none" id="id74" stroke="none" /><text fill="#e1ed5e" style="font-size:6.75px; font-family:Arial;" text-anchor="middle"><textPath startOffset="20.669276256404974" xlink:href="#id74">February</textPath></text><line stroke="#e1ed5e" stroke-width="0.3" x1="172.87174338648825" x2="177.1583165268699" y1="56.24261187166439" y2="53.66864786411523" /><path d="M 173.72905801456457 55.72781907015455 a86.0,86.0 0 0,1 12.242430191666344,42.057860355516425" fill="none" id="id75" stroke="none" /><text fill="#e1ed5e" style="font-size:6.75px; font-family:Arial;" text-anchor="middle"><textPath startOffset="22.145653131862474" xlink:href="#id75">March</textPath></text><line stroke="#e1ed5e" stroke-width="0.3" x1="184.99686870605535" x2="189.99668451229388" y1="99.2704041080226" y2="99.22748670261217" /><path d="M 185.99683186730306 99.26182062694052 a86.0,86.0 0 0,1 -10.086455211305974,41.156179273409016" fill="none" id="id76" stroke="none" /><text fill="#e1ed5e" style="font-size:6.75px; font-family:Arial;" text-anchor="middle"><textPath startOffset="21.40746469413373" xlink:href="#id76">April</textPath></text><line stroke="#e1ed5e" stroke-width="0.3" x1="174.33088141563837" x2="178.70328620479359" y1="141.23008692659167" y2="143.65538615756765" /><path d="M 175.20536237346943 141.71514677278685 a86.0,86.0 0 0,1 -30.301960400862466,31.631185727798858" fill="none" id="id77" stroke="none" /><text fill="#e1ed5e" style="font-size:6.75px; font-family:Arial;" text-anchor="middle"><textPath startOffset="22.145653131862474" xlink:href="#id77">May</textPath></text><path d="M 116.35404254752997 113.17365903436017 l 21.35536625413044 17.202371387268165 a48.4221306464971,48.4221306464971 0 0,0 -0.5270015227856973,0.6428561685495654 l -21.056917912106115 -17.56642983751622" fill="#ffe115" stroke="none" /><path d="M 115.89218393027572 113.72728997021213 l 12.339103954690652 10.658224112039399 a37.30494488267656,37.30494488267656 0 0,0 -0.4227697210338954,0.48103433576929716 l -12.15432316969817 -10.86847072561999" fill="#ff2303" stroke="none" /><path d="M 115.41159269507618 114.26474011684316 l 10.58612849728092 9.798362495361369 a35.42477119927548,35.42477119927548 0 0,0 -0.4169059782442233,0.44273970146486036 l -10.416366685300437 -9.978643656770727" fill="#ff0000" stroke="none" /><path d="M 114.91283532996324 114.78537596483092 l 31.30001514342343 31.032495253976435 a65.0761467198144,65.0761467198144 0 0,0 -0.7933342555752558,0.7865536616562571 l -30.76268896771821 -31.565228925861355" fill="#32ff2f" stroke="none" /><path d="M 114.13192950727249 115.5334660781643 l 31.503188880951143 34.62752312657864 a67.8136333513072,67.8136333513072 0 0,0 -0.8678045209368013,0.7759961537699122 l -30.904119333190962 -35.163214810231935" fill="#33ff56" stroke="none" /><path d="M 113.03279911837588 116.46651593811092 l 27.749488069211672 35.06057167119412 a65.71328408889534,65.71328408889534 0 0,0 -0.890540340812359,0.6924895554007906 l -27.143537783764085 -35.5317622782157" fill="#30ff36" stroke="none" /><path d="M 111.8722381534696 117.32195027204791 l 18.23904070609352 26.611305470525718 a53.26180690420436,53.26180690420436 0 0,0 -0.7586097213194372,0.5104264761798953 l -17.77953469667708 -26.920481620762732" fill="#d3ff1c" stroke="none" /><path d="M 111.5731344415666 117.5232005979908 l 25.12583386481265 38.04371488363208 a66.5920143177427,66.5920143177427 0 0,0 -0.9592876718125758,0.6217986790840669 l -24.46906056074306 -38.46942740442004" fill="#31ff43" stroke="none" /><path d="M 111.27062007382361 117.71928675628689 l 24.79221032959613 38.97747251480701 a67.1941236162076,67.1941236162076 0 0,0 -0.9785892064940213,0.6107120409970479 l -24.119456994312394 -39.39732035264561" fill="#32ff4c" stroke="none" /><path d="M 110.96478420261333 117.91015095944535 l 22.821603369298252 37.277373993671524 a64.70844531906418,64.70844531906418 0 0,0 -0.9523457534389054,0.5718562618240512 l -22.17832485930191 -37.663644256031496" fill="#37ff2e" stroke="none" /><line stroke="#e1ed5e" stroke-width="0.3" x1="143.1302829299769" x2="145.66735839644613" y1="173.24464959558577" y2="177.55315839532614" /><path d="M 143.63769802327073 174.10635135553383 a86.0,86.0 0 0,1 -40.68552437913181,11.842963189579606" fill="none" id="id78" stroke="none" /><text fill="#e1ed5e" style="font-size:6.75px; font-family:Arial;" text-anchor="middle"><textPath startOffset="21.407464694133747" xlink:href="#id78">June</textPath></text><path d="M 110.02825361518725 118.45085714620011 l 21.316481794067812 39.2199255757032 a65.63849189030161,65.63849189030161 0 0,0 -0.9946143921141698,0.5295761419223707 l -20.64007858616709 -39.580072185348136" fill="#30ff35" stroke="none" /><path d="M 109.71004243097381 118.62028667847754 l 29.130127292921426 55.86086003543263 a84.0,84.0 0 0,0 -1.2842911131456707,0.655768193308655 l -28.166908958062173 -56.352686180414125" fill="#4dd2ff" stroke="none" /><path d="M 109.3889696526874 118.78422872680471 l 20.01536331930299 40.04413439895081 a65.76770564329755,65.76770564329755 0 0,0 -1.0141998762919557,0.4960959816983065 l -19.325003193748962 -40.38182413074634" fill="#30ff37" stroke="none" /><line stroke="#e1ed5e" stroke-width="0.3" x1="101.45913802915013" x2="101.54496967792366" y1="184.9874750549273" y2="189.98673829345242" /><path d="M 101.47630435890484 185.9873277026323 a86.0,86.0 0 0,1 -42.54439059252881,-10.42667462771756" fill="none" id="id79" stroke="none" /><text fill="#e1ed5e" style="font-size:6.75px; font-family:Arial;" text-anchor="middle"><textPath startOffset="22.145653131862474" xlink:href="#id79">July</textPath></text><line stroke="#e1ed5e" stroke-width="0.3" x1="58.13341422392154" x2="55.67067388415222" y1="173.97424548756322" y2="178.32567169271397" /><path d="M 57.64086615596768 174.84453072859336 a86.0,86.0 0 0,1 -31.369924170532247,-30.572349798747897" fill="none" id="id80" stroke="none" /><text fill="#e1ed5e" style="font-size:6.75px; font-family:Arial;" text-anchor="middle"><textPath startOffset="22.145653131862474" xlink:href="#id80">August</textPath></text><line stroke="#e1ed5e" stroke-width="0.3" x1="26.387840678322732" x2="22.057713659400548" y1="142.50000000000003" y2="145.00000000000006" /><path d="M 25.521815274538298 143.00000000000003 a86.0,86.0 0 0,1 -11.493303480769221,-40.785679425670985" fill="none" id="id81" stroke="none" /><text fill="#e1ed5e" style="font-size:6.75px; font-family:Arial;" text-anchor="middle"><textPath startOffset="21.40746469413373" xlink:href="#id81">September</textPath></text><line stroke="#e1ed5e" stroke-width="0.3" x1="15.003131293944662" x2="10.003315487706104" y1="100.72959589197737" y2="100.7725132973878" /><path d="M 14.003168132696942 100.73817937305945 a86.0,86.0 0 0,1 10.791469493833604,-42.45332614584628" fill="none" id="id82" stroke="none" /><text fill="#e1ed5e" style="font-size:6.75px; font-family:Arial;" text-anchor="middle"><textPath startOffset="22.145653131862435" xlink:href="#id82">October</textPath></text><line stroke="#e1ed5e" stroke-width="0.3" x1="26.387840678322718" x2="22.05771365940052" y1="57.49999999999999" y2="54.99999999999999" /><path d="M 25.521815274538284 56.99999999999999 a86.0,86.0 0 0,1 29.574782752854787,-30.34633250058573" fill="none" id="id83" stroke="none" /><text fill="#e1ed5e" style="font-size:6.75px; font-family:Arial;" text-anchor="middle"><textPath startOffset="21.40746469413373" xlink:href="#id83">November</textPath></text><line stroke="#e1ed5e" stroke-width="0.3" x1="56.869717070023135" x2="54.33264160355391" y1="26.7553504044142" y2="22.446841604673864" /><path d="M 56.362301976729285 25.89364864446614 a86.0,86.0 0 0,1 42.16139366436587,-11.88097634709845" fill="none" id="id84" stroke="none" /><text fill="#e1ed5e" style="font-size:6.75px; font-family:Arial;" text-anchor="middle"><textPath startOffset="22.145653131862474" xlink:href="#id84">December</textPath></text></svg>