<?xml version="1.0" encoding="utf-8" ?>
<svg baseProfile="full" height="200mm" version="1.1" viewBox="0,0,200,200" width="200mm" xmlns="http://www.w3.org/2000/svg" xmlns:ev="http://www.w3.org/2001/xml-events" xmlns:xlink="http://www.w3.org/1999/xlink"><defs /><rect fill="#1a1a1a" height="200" width="200" x="0" y="0" /><text alignment-baseline="middle" fill="#e1ed5e" style="dominant-baseline: central; font-size:9.0px; font-family:Arial;" text-anchor="middle" x="100.0" y="100.0">2024</text><line stroke="#e1ed5e" stroke-width="0.3" x1="100.0" x2="100.0" y1="15.0" y2="10.0" /><path d="M 100.0 14.0 a86.0,86.0 0 0,1 42.35913384403234,11.155469271406648" fill="none" id="id73" stroke="none" /><text fill="#e1ed5e" style="font-size:6.75px; font-family:Arial;" text-anchor="middle"><textPath startOffset="22.145653131862478" xlink:href="#id73">January</textPath></text><line stroke="#e1ed5e" stroke-width="0.3" x1="143.13028292997686" x2="145.6673583964461" y1="26.7553504044142" y2="22.446841604673864" /><path d="M 143.63769802327073 25.89364864446614 a86.0,86.0 0 0,1 29.32050498858742,28.57503671076993" fill="none" id="id74" stroke="none" /><text fill="#e1ed5e" style="font-size:6.75px; font-family:Arial;" text-anchor="middle"><textPath startOffset="20.669276256404974" xlink:href="#id74">February</textPath></text><line stroke="#e1ed5e" stroke-width="0.3" x1="172.87174338648825" x2="177.1583165268699" y1="56.24261187166439" y2="53.66864786411523" /><path d="M 173.72905801456457 55.72781907015455 a86.0,86.0 0 0,1 12.242430191666344,42.057860355516425" fill="none" id="id75" stroke="none" /><text fill="#e1ed5e" style="font-size:6.75px; font-family:Arial;" text-anchor="middle"><textPath startOffset="22.145653131862474" xlink:href="#id75">March</textPath></text><line stroke="#e1ed5e" stroke-width="0.3" x1="184.99686870605535" x2="189.99668451229388" y1="99.2704041080226" y2="99.22748670261217" /><path d="M 185.99683186730306 99.26182062694052 a86.0,86.0 0 0,1 -10.086455211305974,41.156179273409016" fill="none" id="id76" stroke="none" /><text fill="#e1ed5e" style="font-size:6.75px; font-family:Arial;" text-anchor="middle"><textPath startOffset="21.40746469413373" xlink:href="#id76">April</textPath></text><line stroke="#e1ed5e" stroke-width="0.3" x1="174.33088141563837" x2="178.70328620479359" y1="141.23008692659167" y2="143.65538615756765" /><path d="M 175.20536237346943 141.71514677278685 a86.0,86.0 0 0,1 -30.301960400862466,31.631185727798858" fill="none" id="id77" stroke="none" /><text fill="#e1ed5e" style="font-size:6.75px; font-family:Arial;" text-anchor="middle"><textPath startOffset="22.145653131862474" xlink:href="#id77">May</textPath></text><path d="M 116.35404254752997 113.17365903436017 l 19.15379479960784 15.428941264570977 a45.59512317047966,45.59512317047966 0 0,0 -0.49623382989617515,0.6053245859812337 l -18.886114150473038 -15.755468132250703" fill="#ffc512" stroke="none" /><path d="M 115.89218393027572 113.72728997021213 l 11.06703871742132 9.559444457233337 a35.624032422824826,35.624032422824826 0 0,0 -0.40372026541966344,0.45935955214063684 l -10.901307388043072 -9.748016287185267" fill="#ff1e03" stroke="none" /><path d="M 115.41159269507618 114.26474011684316 l 9.494781337219262 8.788227856875361 a33.93768996018869,33.93768996018869 0 0,0 -0.3994048614346731,0.42415412189559143 l -9.34252064204833 -8.949923438715448" fill="#ff0000" stroke="none" /><path d="M 114.91283532996324 114.78537596483092 l 28.073228065840144 27.833287387403384 a60.53224027077726,60.53224027077726 0 0,0 -0.7379401239025383,0.7316329812554702 l -27.59129602180764 -28.311100378887517" fill="#63ff29" stroke="none" /><path d="M 114.13192950727249 115.5334660781643 l 28.25545617801418 31.057695967020944 a62.98751341300874,62.98751341300874 0 0,0 -0.8060451298812871,0.7207705254607677 l -27.71814602130952 -31.5381620223651" fill="#44ff2d" stroke="none" /><path d="M 113.03279911837588 116.46651593811092 l 24.888732599893714 31.446100589218865 a61.1036937537714,61.1036937537714 0 0,0 -0.8280715994465578,0.6439134842759391 l -24.345251055811925 -31.8687151251156" fill="#5cff2a" stroke="none" /><path d="M 111.8722381534696 117.32195027204791 l 16.358738074025815 23.86788773681398 a49.93586660861805,49.93586660861805 0 0,0 -0.7112382409395507,0.4785528300583096 l -15.946603544989262 -24.14519024092941" fill="#f6ff19" stroke="none" /><path d="M 111.5731344415666 117.5232005979908 l 22.53555665066513 34.12170503771799 a61.89183375976634,61.89183375976634 0 0,0 -0.8915794742042847,0.5779110434216085 l -21.946491544203838 -34.50352992284349" fill="#52ff2b" stroke="none" /><path d="M 111.27062007382361 117.71928675628689 l 22.236327096003627 34.959199550678335 a62.43187029262152,62.43187029262152 0 0,0 -0.9092335924872105,0.5674290083377647 l -21.632929374726704 -35.33576435585765" fill="#4bff2c" stroke="none" /><path d="M 110.96478420261333 117.91015095944535 l 20.468874320946483 33.434367907641175 a60.20244601233715,60.20244601233715 0 0,0 -0.8860287636920374,0.5320348149229382 l -19.891912800697007 -33.78081672310004" fill="#67ff28" stroke="none" /><line stroke="#e1ed5e" stroke-width="0.3" x1="143.1302829299769" x2="145.66735839644613" y1="173.24464959558577" y2="177.55315839532614" /><path d="M 143.63769802327073 174.10635135553383 a86.0,86.0 0 0,1 -40.68552437913181,11.842963189579606" fill="none" id="id78" stroke="none" /><text fill="#e1ed5e" style="font-size:6.75px; font-family:Arial;" text-anchor="middle"><textPath startOffset="21.407464694133747" xlink:href="#id78">June</textPath></text><path d="M 110.02825361518725 118.45085714620011 l 19.11891902365204 35.17665759479144 a61.03661204665253,61.03661204665253 0 0,0 -0.9248825047496192,0.49244783956492283 l -18.512247703115868 -35.499675902078934" fill="#5dff2a" stroke="none" /><path d="M 109.71004243097381 118.62028667847754 l 26.127038703780446 50.10204169368191 a77.50519209156165,77.50519209156165 0 0,0 -1.1849908264981042,0.6050647594038528 l -25.26312065556876 -50.5431644047586" fill="#43ffdf" stroke="none" /><path d="M 109.3889696526874 118.78422872680471 l 17.951935700628766 35.915896926238524 a61.15250487100026,61.15250487100026 0 0,0 -0.9430291397345147,0.46128280803697264 l -17.33274631163218 -36.21877348437272" fill="#5bff2a" stroke="none" /><path d="M 108.73861861582097 119.09545874513695 l 21.349961267814024 46.65351842472113 a72.30664311317739,72.30664311317739 0 0,0 -1.133102244430865,0.5068222214552294 l -20.545945620527533 -47.0131443970862" fill="#3bff9c" stroke="none" /><path d="M 107.407793817531 119.65005319985036 l 14.269987939841803 37.85283838698596 a61.45330554793401,61.45330554793401 0 0,0 -0.9903078697206901,0.3636547669547314 l -13.618090918466985 -38.092224002949415" fill="#57ff2a" stroke="none" /><path d="M 107.06938296918513 119.77432235084164 l 16.26784947540513 45.504070282206165 a69.32456247916164,69.32456247916164 0 0,0 -1.1240292085551806,0.39099570673945655 l -15.484314494804925 -45.776624421514214" fill="#36ff72" stroke="none" /><path d="M 106.38641147887787 120.00534299687104 l 19.159234436633636 60.016028990613094 a84.0,84.0 0 0,0 -1.3774374685135027,0.42673364877342257 l -18.126156335248506 -60.33607922719317" fill="#4dd2ff" stroke="none" /><path d="M 105.69591212413111 120.21278271476187 l 16.296932407591633 57.832063854401625 a81.08442073913335,81.08442073913335 0 0,0 -1.3429842679765294,0.3660363342227772 l -15.30176673868041 -58.10330068276855" fill="#49f3ff" stroke="none" /><line stroke="#e1ed5e" stroke-width="0.3" x1="101.45913802915013" x2="101.54496967792366" y1="184.9874750549273" y2="189.98673829345242" /><path d="M 101.47630435890484 185.9873277026323 a86.0,86.0 0 0,1 -42.54439059252881,-10.42667462771756" fill="none" id="id79" stroke="none" /><text fill="#e1ed5e" style="font-size:6.75px; font-family:Arial;" text-anchor="middle"><textPath startOffset="22.145653131862474" xlink:href="#id79">July</textPath></text><line stroke="#e1ed5e" stroke-width="0.3" x1="58.13341422392154" x2="55.67067388415222" y1="173.97424548756322" y2="178.32567169271397" /><path d="M 57.64086615596768 174.84453072859336 a86.0,86.0 0 0,1 -31.369924170532247,-30.572349798747897" fill="none" id="id80" stroke="none" /><text fill="#e1ed5e" style="font-size:6.75px; font-family:Arial;" text-anchor="middle"><textPath startOffset="22.145653131862474" xlink:href="#id80">August</textPath></text><line stroke="#e1ed5e" stroke-width="0.3" x1="26.387840678322732" x2="22.057713659400548" y1="142.50000000000003" y2="145.00000000000006" /><path d="M 25.521815274538298 143.00000000000003 a86.0,86.0 0 0,1 -11.493303480769221,-40.785679425670985" fill="none" id="id81" stroke="none" /><text fill="#e1ed5e" style="font-size:6.75px; font-family:Arial;" text-anchor="middle"><textPath startOffset="21.40746469413373" xlink:href="#id81">September</textPath></text><line stroke="#e1ed5e" stroke-width="0.3" x1="15.003131293944662" x2="10.003315487706104" y1="100.72959589197737" y2="100.7725132973878" /><path d="M 14.003168132696942 100.73817937305945 a86.0,86.0 0 0,1 10.791469493833604,-42.45332614584628" fill="none" id="id82" stroke="none" /><text fill="#e1ed5e" style="font-size:6.75px; font-family:Arial;" text-anchor="middle"><textPath startOffset="22.145653131862435" xlink:href="#id82">October</textPath></text><line stroke="#e1ed5e" stroke-width="0.3" x1="26.387840678322718" x2="22.05771365940052" y1="57.49999999999999" y2="54.99999999999999" /><path d="M 25.521815274538284 56.99999999999999 a86.0,86.0 0 0,1 29.574782752854787,-30.34633250058573" fill="none" id="id83" stroke="none" /><text fill="#e1ed5e" style="font-size:6.75px; font-family:Arial;" text-anchor="middle"><textPath startOffset="21.40746469413373" xlink:href="#id83">November</textPath></text><line stroke="#e1ed5e" stroke-width="0.3" x1="56.869717070023135" x2="54.33264160355391" y1="26.7553504044142" y2="22.446841604673864" /><path d="M 56.362301976729285 25.89364864446614 a86.0,86.0 0 0,1 42.16139366436587,-11.88097634709845" fill="none" id="id84" stroke="none" /><text fill="#e1ed5e" style="font-size:6.75px; font-family:Arial;" text-anchor="middle"><textPath startOffset="22.145653131862474" xlink:href="#id84">December</textPath></text></svg>