<?xml version="1.0" encoding="utf-8" ?>
<svg baseProfile="full" height="200mm" version="1.1" viewBox="0,0,200,200" width="200mm" xmlns="http://www.w3.org/2000/svg" xmlns:ev="http://www.w3.org/2001/xml-events" xmlns:xlink="http://www.w3.org/1999/xlink"><defs /><rect fill="#1a1a1a" height="200" width="200" x="0" y="0" /><text alignment-baseline="middle" fill="#e1ed5e" style="dominant-baseline: central; font-size:9.0px; font-family:Arial;" text-anchor="middle" x="100.0" y="100.0">2019</text><line stroke="#e1ed5e" stroke-width="0.3" x1="100.0" x2="100.0" y1="15.0" y2="10.0" /><path d="M 100.0 14.0 a86.0,86.0 0 0,1 42.46469731375804,11.215312516191453" fill="none" id="id13" stroke="none" /><text fill="#e1ed5e" style="font-size:6.75px; font-family:Arial;" text-anchor="middle"><textPath startOffset="22.20632615414155" xlink:href="#id13">January</textPath></text><path d="M 101.08401301168833 79.027996857942 l 0.5858548854703861 -11.334320129367176 a32.3494510326186,32.3494510326186 0 0,0 0.555852839608257,0.033530561253431096 l -0.7808697739182551 11.322556298733442" fill="#ff5708" stroke="none" /><path d="M 102.16513564639614 79.11191278185805 l 0.9736910031965988 -9.393657451506185 a30.44398615447649,30.44398615447649 0 0,0 0.520785404979851,0.058516308270460636 l -1.1352431116861752 9.375505189765123" fill="#ff3b05" stroke="none" /><path d="M 102.52436894288641 79.15227682838746 l 1.2278559798339461 -10.140356715416562 a31.214424341249376,31.214424341249376 0 0,0 0.5328529230687657,0.0691796023956159 l -1.4022236314105578 10.11771878985681" fill="#ff4606" stroke="none" /><path d="M 104.66035177308747 79.52364482259891 l 2.3978333916768824 -10.535446802051215 a31.80487132237547,31.80487132237547 0 0,0 0.5327714462103148,0.1260897881629245 l -2.5788285248497207 10.492611101747421" fill="#ff4f07" stroke="none" /><path d="M 105.01212808612495 79.60689891045804 l 3.836437475998564 -15.609508761024806 a37.07404791170402,37.07404791170402 0 0,0 0.6184147354254965,0.1576476856384291 l -4.104561100109086 15.541158079217508" fill="#ff9c0e" stroke="none" /><path d="M 107.08798089147638 80.2323363322302 l 3.0398170823103623 -8.477743184510215 a30.006254348863088,30.006254348863088 0 0,0 0.4846977053570405,0.17851825541520058 l -3.1852971134399795 8.42416166128869" fill="#ff3404" stroke="none" /><path d="M 107.4271985657038 80.35727306442388 l 4.359944399087855 -11.530753692386549 a33.3275056632566,33.3275056632566 0 0,0 0.5348538322422102,0.20751497745713912 l -4.557781396329731 11.453996011038864" fill="#ff6609" stroke="none" /><line stroke="#e1ed5e" stroke-width="0.3" x1="143.23703022742887" x2="145.7803849466894" y1="26.81831364943548" y2="22.513508569990506" /><path d="M 143.74570117128098 25.957352633546492 a86.0,86.0 0 0,1 28.547481713284135,27.462654790039103" fill="none" id="id14" stroke="none" /><text fill="#e1ed5e" style="font-size:6.75px; font-family:Arial;" text-anchor="middle"><textPath startOffset="19.985693538727396" xlink:href="#id14">February</textPath></text><path d="M 116.38621287248628 86.86637796730983 l 10.15301770883252 -8.13768856273766 a34.01175406084737,34.01175406084737 0 0,0 0.3622185717881042,0.4599808022990137 l -10.291590361214588 7.961715366485609" fill="#ff700a" stroke="none" /><line stroke="#e1ed5e" stroke-width="0.3" x1="172.23445277983987" x2="176.4835382374775" y1="55.19839476539836" y2="52.563006222186495" /><path d="M 173.08426987136738 54.67131705675599 a86.0,86.0 0 0,1 12.851231095245387,41.99856678651699" fill="none" id="id15" stroke="none" /><text fill="#e1ed5e" style="font-size:6.75px; font-family:Arial;" text-anchor="middle"><textPath startOffset="22.20632615414155" xlink:href="#id15">March</textPath></text><line stroke="#e1ed5e" stroke-width="0.3" x1="184.98032266829074" x2="189.97916517819016" y1="98.17113171792111" y2="98.06355123074" /><path d="M 185.9800911702706 98.14961562048488 a86.0,86.0 0 0,1 -9.607161424134198,41.387399972396054" fill="none" id="id16" stroke="none" /><text fill="#e1ed5e" style="font-size:6.75px; font-family:Arial;" text-anchor="middle"><textPath startOffset="21.466115282336823" xlink:href="#id16">April</textPath></text><path d="M 119.12269723197855 108.67885076344098 l 57.368091695935625 26.036552290322952 a84.0,84.0 0 0,0 -0.6089015326406746,1.3115197308846775 l -56.911415546455125 -27.02019208848646" fill="#4dd2ff" stroke="none" /><line stroke="#e1ed5e" stroke-width="0.3" x1="174.80103733775053" x2="179.2010983576182" y1="140.37084112569926" y2="142.7455964860345" /><path d="M 175.68104954172406 140.8457921977663 a86.0,86.0 0 0,1 -30.038265399797805,32.042727171017184" fill="none" id="id17" stroke="none" /><text fill="#e1ed5e" style="font-size:6.75px; font-family:Arial;" text-anchor="middle"><textPath startOffset="22.206326154141568" xlink:href="#id17">May</textPath></text><path d="M 113.48314897796784 116.09983520530334 l 8.339112960456717 9.957491728463985 a33.98816563220865,33.98816563220865 0 0,0 -0.45176725256762607,0.3717736927051915 l -8.166475579344398 -10.099560540026356" fill="#ff700a" stroke="none" /><line stroke="#e1ed5e" stroke-width="0.3" x1="143.8653032363475" x2="146.44561519142675" y1="172.8068346515853" y2="177.08958963109032" /><path d="M 144.38136562736335 173.6633856474863 a86.0,86.0 0 0,1 -40.68145358897372,12.25698825130547" fill="none" id="id18" stroke="none" /><text fill="#e1ed5e" style="font-size:6.75px; font-family:Arial;" text-anchor="middle"><textPath startOffset="21.466115282336833" xlink:href="#id18">June</textPath></text><line stroke="#e1ed5e" stroke-width="0.3" x1="102.19456741930631" x2="102.32365962044197" y1="184.97166512339345" y2="189.96999836594603" /><path d="M 102.22038585953345 185.97133177190398 a86.0,86.0 0 0,1 -42.740103519485714,-10.115201625700543" fill="none" id="id19" stroke="none" /><text fill="#e1ed5e" style="font-size:6.75px; font-family:Arial;" text-anchor="middle"><textPath startOffset="22.20632615414155" xlink:href="#id19">July</textPath></text><line stroke="#e1ed5e" stroke-width="0.3" x1="58.666819895761336" x2="56.23545636021788" y1="174.27360380694188" y2="178.64263932499728" /><path d="M 58.180547188652646 175.14741091055294 a86.0,86.0 0 0,1 -31.652253787137756,-30.449443065178592" fill="none" id="id20" stroke="none" /><text fill="#e1ed5e" style="font-size:6.75px; font-family:Arial;" text-anchor="middle"><textPath startOffset="22.20632615414155" xlink:href="#id20">August</textPath></text><line stroke="#e1ed5e" stroke-width="0.3" x1="26.63291911575756" x2="22.317208475507996" y1="142.92168965132927" y2="145.44649492493687" /><path d="M 25.769776987707644 143.4266507060508 a86.0,86.0 0 0,1 -11.730757126820373,-40.83630448921669" fill="none" id="id21" stroke="none" /><text fill="#e1ed5e" style="font-size:6.75px; font-family:Arial;" text-anchor="middle"><textPath startOffset="21.46611528233685" xlink:href="#id21">September</textPath></text><path d="M 81.51974371655577 109.97397251340807 l -4.994285218478492 2.6954638901761414 a26.67524540674289,26.67524540674289 0 0,0 -0.21460551447403997,-0.40595275718513374 l 5.039943241177418 -2.6090961179048815" fill="#ff0000" stroke="none" /><line stroke="#e1ed5e" stroke-width="0.3" x1="15.007084014347285" x2="10.007500721073583" y1="101.09737516637583" y2="101.16192664675087" /><path d="M 14.007167355692545 101.11028546245083 a86.0,86.0 0 0,1 10.666146001902534,-42.60595125391555" fill="none" id="id22" stroke="none" /><text fill="#e1ed5e" style="font-size:6.75px; font-family:Arial;" text-anchor="middle"><textPath startOffset="22.20632615414155" xlink:href="#id22">October</textPath></text><line stroke="#e1ed5e" stroke-width="0.3" x1="26.266209847984243" x2="21.928928074336255" y1="57.711370442889674" y2="55.22380399835377" /><path d="M 25.398753493254645 57.213857153982495 a86.0,86.0 0 0,1 29.58750427330803,-30.492523968695096" fill="none" id="id23" stroke="none" /><text fill="#e1ed5e" style="font-size:6.75px; font-family:Arial;" text-anchor="middle"><textPath startOffset="21.46611528233685" xlink:href="#id23">November</textPath></text><line stroke="#e1ed5e" stroke-width="0.3" x1="56.762969772571076" x2="54.21961505331055" y1="26.818313649435495" y2="22.513508569990535" /><path d="M 56.25429882871897 25.957352633546506 a86.0,86.0 0 0,1 42.265352541879196,-11.944610805530505" fill="none" id="id24" stroke="none" /><text fill="#e1ed5e" style="font-size:6.75px; font-family:Arial;" text-anchor="middle"><textPath startOffset="22.20632615414155" xlink:href="#id24">December</textPath></text><path d="M 93.59665428221793 80.00007090966166 l -12.087609578682878 -37.75390945611591 a60.641745478059676,60.641745478059676 0 0,0 0.9968770268275821,-0.3097345447840436 l 11.435947179144568 37.95638413578248" fill="#3dff2e" stroke="none" /><path d="M 94.28887869178378 79.79150937346287 l -6.488793189392922 -22.960240076977215 a44.859527687008864,44.859527687008864 0 0,0 0.7448862853755644,-0.20360556003558883 l 6.092609014793635 23.0685321778391" fill="#f8ff18" stroke="none" /><path d="M 94.98787191387505 79.60689891045804 l -2.7284852048713053 -11.101526866062018 a32.43190842646574,32.43190842646574 0 0,0 0.5432751033824211,-0.1285756644560098 l 2.53698641452635 11.146848442658898" fill="#ff5908" stroke="none" /><path d="M 95.33964822691252 79.52364482259891 l -5.124356840516434 -22.51507092835708 a44.09085212671671,44.09085212671671 0 0,0 0.7414764393724386,-0.16205803055398155 l 4.736037676990475 22.59994245700693" fill="#fffc17" stroke="none" /><path d="M 96.04723909329186 79.375362276772 l -4.566410908956716 -23.82652857469747 a45.2601643133412,45.2601643133412 0 0,0 0.766415964262326,-0.14005761866138405 l 4.155599823591497 23.90160167470959" fill="#f2ff19" stroke="none" /><path d="M 96.40284397218896 79.31037775812273 l -9.967628298824335 -57.33041951911539 a79.1904684303305,79.1904684303305 0 0,0 1.3449965352990234,-0.2219359526993543 l 8.979302557386426 57.49350173475437" fill="#47fffb" stroke="none" /></svg>